<?xml version="1.0" encoding="iso-8859-1"?>
<!-- Generator: Adobe Illustrator 19.0.0, SVG Export Plug-In . SVG Version: 6.00 Build 0)  -->
<svg version="1.1" id="Layer_1" xmlns="http://www.w3.org/2000/svg" xmlns:xlink="http://www.w3.org/1999/xlink" x="0px" y="0px"
	 viewBox="0 0 511.913 511.913" style="enable-background:new 0 0 511.913 511.913;" xml:space="preserve">
<g transform="translate(0 1)">
	<g>
		<g>
			<path d="M503.306,110.184l-0.883-0.883c-11.476-11.476-31.779-11.476-43.255,0l-45.903,46.786c-2.648,2.648-6.179,2.648-8.828,0
				L339.995,96.06c-6.179-5.297-14.124-8.828-22.952-8.828h-96.221c-2.648,0-4.414,0.883-5.297,1.766l-81.214,77.683
				c-11.476,12.359-12.359,31.779-1.766,43.255c5.297,6.179,13.241,9.71,22.069,9.71c8.828,0,16.772-3.531,22.069-9.71l57.379-60.91
				h20.303L120.188,299.094H37.209c-20.303,0-36.193,15.007-37.076,33.545c-0.883,9.71,2.648,19.421,9.71,26.483
				c7.062,6.179,15.89,10.593,25.6,10.593H159.03c2.648,0,4.414-0.883,6.179-2.648l63.559-67.972l52.965,55.614l-15.89,102.4
				c-4.414,17.655,4.414,34.428,19.421,41.49c5.297,2.648,9.71,3.531,15.007,3.531c5.297,0,10.593-0.883,15.89-3.531
				c8.828-4.414,15.89-13.241,18.538-23.835l27.365-147.421c0-2.648-0.883-6.179-2.648-7.945l-73.269-73.269l58.262-58.262
				l40.607,40.607c11.476,11.476,30.897,11.476,42.372,0l75.917-75.917C514.782,141.08,514.782,121.66,503.306,110.184z
				 M490.947,140.198l-75.917,75.917c-5.297,4.414-13.241,4.414-17.655,0l-46.786-46.786c-3.531-3.531-8.828-3.531-12.359,0
				l-70.621,70.621c-1.766,1.766-2.648,3.531-2.648,6.179s0.883,4.414,3.531,7.062l75.917,75.917l-26.483,142.124
				c-1.766,4.414-5.297,8.828-9.71,11.476c-4.414,1.766-9.71,2.648-15.007,0c-7.945-3.531-11.476-12.359-9.71-22.069l16.772-107.697
				c0-2.648-0.883-5.297-2.648-7.062l-62.676-65.324c-1.766-1.766-3.531-2.648-6.179-2.648c-2.648,0-5.297,0.883-6.179,2.648
				l-67.09,71.503H35.444c-5.297,0-9.71-1.766-13.241-5.297c-2.648-3.531-4.414-7.945-4.414-13.241
				c0-9.71,8.828-16.772,19.421-16.772h86.51c2.648,0,4.414-0.883,6.179-0.883l150.069-167.724c2.648-2.648,2.648-6.179,1.766-9.71
				c-0.883-3.531-4.414-5.297-7.945-5.297h-44.138c-1.766,0-4.414,0.883-6.179,2.648l-60.028,63.559
				c-1.766,2.648-5.297,4.414-8.828,4.414c-3.531,0-7.062-1.766-9.71-4.414c-4.414-5.297-4.414-13.241,0.883-18.538l78.566-75.034
				h93.572c3.531,0,7.945,1.766,10.593,4.414l64.441,60.028c9.71,8.828,24.717,7.945,33.545-0.883l45.904-46.786
				c4.414-4.414,13.241-4.414,17.655,0l0.883,0.883C495.361,127.839,495.361,135.784,490.947,140.198z"/>
			<path d="M406.202,113.715c29.131,0,52.966-23.834,52.966-52.966S435.333,7.784,406.202,7.784s-52.966,23.834-52.966,52.966
				S377.071,113.715,406.202,113.715z M406.202,25.439c19.421,0,35.31,15.89,35.31,35.31c0,19.421-15.89,35.31-35.31,35.31
				s-35.31-15.89-35.31-35.31C370.892,41.329,386.782,25.439,406.202,25.439z"/>
		</g>
	</g>
</g>
<g>
</g>
<g>
</g>
<g>
</g>
<g>
</g>
<g>
</g>
<g>
</g>
<g>
</g>
<g>
</g>
<g>
</g>
<g>
</g>
<g>
</g>
<g>
</g>
<g>
</g>
<g>
</g>
<g>
</g>
</svg>
