<?xml version="1.0" encoding="utf-8"?>
<svg viewBox="0 0 500 500" xmlns="http://www.w3.org/2000/svg">
  <g id="Page-1" fill="none" fill-rule="evenodd" transform="matrix(1, 0, 0, 1, 146.196625, 127.933311)">
    <g id="071---Walking-Through-Terminal" fill="rgb(0,0,0)" fill-rule="nonzero" transform="translate(-1 -1)">
      <path id="Shape" d="M -30.288 8.711 L -65.316 65.91 C -70.115 73.395 -70.884 81.55 -68.775 90.742 C -64.685 108.531 -21.373 118.859 -17.143 110.133 C -11.924 107.305 -7.589 103.244 -4.576 98.366 L 22.385 54.357 L 46.441 50.27 L -42.188 326.041 C -44.877 334.327 -43.921 343.274 -39.535 350.898 C -35.148 358.53 -27.687 364.21 -18.798 366.701 C -15.523 367.649 -12.116 368.132 -8.684 368.132 C 6.755 368.05 20.346 358.604 24.838 344.819 L 68.264 209.871 L 116.366 246.552 L 131.795 340.456 C 134.388 356.43 149.144 368.213 166.456 368.132 C 168.252 368.148 170.047 368.008 171.816 367.707 C 190.915 364.945 204.024 348.276 201.116 330.445 L 183.602 224.137 C 182.202 216.22 177.77 209.037 171.133 203.93 L 111.585 158.482 L 130.377 91.993 L 158.111 120.51 C 164.766 127.267 174.136 131.133 183.97 131.165 L 236.512 131.165 C 255.856 131.165 271.54 116.532 271.54 98.48 C 271.54 80.43 255.856 65.795 236.512 65.795 L 199.496 65.795 L 135.806 0.426 C 119.041 -14.979 111.677 -24.549 84.57 -22.609 L -6.232 -7.206 C -16.389 -5.515 -25.217 0.319 -30.288 8.711 Z M 92.556 -7.377 C 98.528 -8.579 104.745 -6.83 109.01 -2.753 C 109.352 -2.352 109.729 -1.977 110.14 -1.641 L 189.146 79.466 C 190.81 81.166 193.156 82.138 195.625 82.138 L 236.512 82.138 C 246.189 82.138 254.026 89.451 254.026 98.48 C 254.026 107.51 246.189 114.823 236.512 114.823 L 183.97 114.823 C 179.049 114.807 174.355 112.878 171.018 109.495 L 132.488 69.864 C 130.333 67.651 127.05 66.711 123.933 67.421 C 120.815 68.132 118.362 70.379 117.539 73.273 L 93.186 159.397 C 92.31 162.495 93.458 165.778 96.111 167.806 L 160.038 216.555 C 163.373 219.121 165.597 222.724 166.325 226.704 L 183.839 332.93 C 184.531 337.261 183.34 341.665 180.537 345.178 C 177.727 348.685 173.541 351.004 168.899 351.626 C 168.093 351.748 167.271 351.806 166.456 351.788 C 157.83 351.748 150.501 345.914 149.109 337.971 L 133.18 240.971 C 132.846 238.968 131.743 237.155 130.062 235.88 L 69.201 189.476 C 66.932 187.752 63.894 187.195 61.101 187.997 C 58.308 188.789 56.117 190.84 55.278 193.455 L 8.068 340.129 C 5.275 348.757 -4.471 353.652 -13.728 351.062 C -18.168 349.828 -21.898 346.984 -24.088 343.176 C -26.285 339.369 -26.759 334.9 -25.419 330.764 L 67.318 42.238 C 68.194 39.516 67.485 36.567 65.462 34.451 C 63.43 32.327 60.365 31.345 57.37 31.852 L 15.249 38.961 C 12.701 39.394 10.494 40.849 9.207 42.949 L -19.788 90.309 C -22.686 95.752 -28.571 99.24 -35.086 99.38 C -41.592 99.51 -47.644 96.266 -50.797 90.955 C -53.949 85.635 -53.685 79.131 -50.104 74.057 L -15.076 16.784 C -12.545 12.625 -8.158 9.741 -3.114 8.907 L 92.556 -7.377 Z" style=""/>
    </g>
  </g>
  <circle style="stroke: rgb(0, 0, 0); paint-order: fill; fill: rgba(216, 216, 216, 0); stroke-width: 16px;" cx="302.886" cy="59.3" r="44.275"/>
</svg>