<svg id="Capa_1" enable-background="new 0 0 509.691 509.691" height="512" viewBox="0 0 509.691 509.691" width="512" xmlns="http://www.w3.org/2000/svg"><g><path d="m213.296 238.87c-4.142 0-7.5 3.358-7.5 7.5v21.375h-.05c-4.142 0-7.5 3.358-7.5 7.5s3.358 7.5 7.5 7.5h99.652c4.143 0 7.5-3.358 7.5-7.5s-3.357-7.5-7.5-7.5h-.502v-24.558c0-17.721-9.356-33.29-23.383-42.05 14.026-8.76 23.383-24.329 23.383-42.05v-24.558h.502c4.143 0 7.5-3.358 7.5-7.5s-3.357-7.5-7.5-7.5h-99.652c-4.142 0-7.5 3.358-7.5 7.5s3.358 7.5 7.5 7.5h.05v24.558c0 17.719 9.355 33.287 23.38 42.048-4.277 2.666-8.178 5.985-11.529 9.913-2.688 3.151-2.313 7.885.837 10.574 3.151 2.688 7.885 2.313 10.574-.837 6.586-7.72 16.168-12.147 26.289-12.147 19.051 0 34.55 15.499 34.55 34.55v24.558h-69.1v-21.376c-.001-4.142-3.359-7.5-7.501-7.5zm7.499-79.783v-24.558h69.1v24.558c0 19.051-15.499 34.55-34.55 34.55s-34.55-15.499-34.55-34.55z"/><path d="m255.846 97.569c12.406 0 22.5-10.093 22.5-22.5v-38.063c0-12.407-10.094-22.5-22.5-22.5-12.407 0-22.5 10.093-22.5 22.5v38.062c0 12.407 10.093 22.501 22.5 22.501zm-7.5-60.563c0-4.136 3.364-7.5 7.5-7.5s7.5 3.364 7.5 7.5v38.062c0 4.136-3.364 7.5-7.5 7.5s-7.5-3.364-7.5-7.5z"/><path d="m150.646 127.55c4.386 4.387 10.148 6.58 15.91 6.58s11.523-2.193 15.91-6.58c8.773-8.773 8.773-23.047 0-31.82l-26.914-26.914c-4.25-4.25-9.9-6.59-15.91-6.59s-11.66 2.34-15.91 6.59-6.59 9.9-6.59 15.91 2.341 11.661 6.59 15.91zm-16.308-48.128c1.417-1.417 3.3-2.197 5.303-2.197s3.887.78 5.303 2.197l26.915 26.914c2.924 2.924 2.924 7.683 0 10.607s-7.683 2.924-10.607 0l-26.914-26.915c-1.417-1.416-2.197-3.299-2.197-5.303 0-2.003.78-3.886 2.197-5.303z"/><path d="m91.215 223.137h38.062c12.407 0 22.5-10.093 22.5-22.5s-10.093-22.5-22.5-22.5h-38.062c-12.407 0-22.5 10.093-22.5 22.5s10.093 22.5 22.5 22.5zm0-30h38.062c4.136 0 7.5 3.364 7.5 7.5s-3.364 7.5-7.5 7.5h-38.062c-4.136 0-7.5-3.364-7.5-7.5s3.364-7.5 7.5-7.5z"/><path d="m149.938 274.018-26.914 26.914c-8.773 8.773-8.773 23.047 0 31.82 4.386 4.386 10.148 6.58 15.91 6.58s11.523-2.193 15.91-6.58l26.915-26.915c4.25-4.25 6.59-9.9 6.59-15.91s-2.341-11.661-6.59-15.91c-8.774-8.773-23.049-8.772-31.821.001zm21.214 21.213-26.915 26.915c-1.417 1.416-3.3 2.196-5.303 2.196s-3.887-.78-5.303-2.196c-2.924-2.924-2.924-7.683 0-10.607l26.914-26.914c1.462-1.462 3.383-2.193 5.303-2.193 1.921 0 3.841.731 5.304 2.193 1.417 1.416 2.197 3.299 2.197 5.303 0 2.002-.781 3.886-2.197 5.303z"/><path d="m232.346 327.205v38.062c0 12.407 10.093 22.5 22.5 22.5 12.406 0 22.5-10.093 22.5-22.5v-38.062c0-12.407-10.094-22.5-22.5-22.5-12.407 0-22.5 10.094-22.5 22.5zm30 0v38.062c0 4.136-3.364 7.5-7.5 7.5s-7.5-3.364-7.5-7.5v-38.062c0-4.136 3.364-7.5 7.5-7.5s7.5 3.365 7.5 7.5z"/><path d="m355.141 333.459c4.386 4.386 10.147 6.579 15.909 6.579s11.524-2.193 15.911-6.579c8.771-8.773 8.771-23.047 0-31.82l-26.915-26.915c-8.772-8.772-23.049-8.771-31.819 0h-.001c-8.771 8.772-8.772 23.046 0 31.819zm-16.309-48.127c2.924-2.924 7.682-2.926 10.607 0l26.914 26.914c2.925 2.924 2.925 7.683.001 10.606-2.925 2.923-7.683 2.924-10.607 0l-26.914-26.915c-2.925-2.924-2.925-7.681-.001-10.605z"/><path d="m358.914 201.637c0 12.407 10.094 22.5 22.5 22.5h38.062c12.406 0 22.5-10.093 22.5-22.5s-10.094-22.5-22.5-22.5h-38.062c-12.406 0-22.5 10.093-22.5 22.5zm68.063 0c0 4.136-3.364 7.5-7.5 7.5h-38.062c-4.136 0-7.5-3.364-7.5-7.5s3.364-7.5 7.5-7.5h38.062c4.135 0 7.5 3.364 7.5 7.5z"/><path d="m328.934 128.257c4.386 4.386 10.147 6.579 15.909 6.579 5.763 0 11.524-2.193 15.911-6.579l26.914-26.914c8.771-8.773 8.771-23.047-.001-31.82-8.771-8.772-23.047-8.771-31.82 0l-26.914 26.914c-8.772 8.773-8.772 23.047.001 31.82-.001 0-.001 0 0 0zm10.606-21.214 26.913-26.914c2.926-2.924 7.684-2.925 10.607 0 2.925 2.924 2.925 7.683 0 10.607l-26.913 26.914c-2.927 2.925-7.684 2.924-10.608 0h.001c-2.925-2.924-2.925-7.682 0-10.607z"/><path d="m484.869 428.952h-40.767c-4.143 0-7.5 3.358-7.5 7.5s3.357 7.5 7.5 7.5h40.767c5.416 0 9.822 4.406 9.822 9.822v16.588c0 5.417-4.406 9.823-9.822 9.823h-95.357v-36.233h22.629c4.143 0 7.5-3.358 7.5-7.5s-3.357-7.5-7.5-7.5h-387.318c-13.688 0-24.823 11.136-24.823 24.823v16.588c0 13.688 11.135 24.823 24.823 24.823h460.046c13.688 0 24.822-11.135 24.822-24.823v-16.588c0-13.687-11.134-24.823-24.822-24.823zm-110.357 51.233h-38.987l18.348-36.233h20.639zm-86.719 0 18.348-36.233h30.917l-18.348 36.233zm-47.732 0 18.348-36.233h30.918l-18.348 36.233zm-47.731 0 18.348-36.233h30.918l-18.348 36.233zm-47.732 0 18.348-36.233h30.918l-18.348 36.233zm-47.731 0 18.348-36.233h30.918l-18.348 36.233zm-47.732 0 18.348-36.233h30.919l-18.348 36.233zm-34.135-9.822v-16.588c0-5.416 4.406-9.822 9.823-9.822h25.847l-18.348 36.233h-7.499c-5.417-.001-9.823-4.407-9.823-9.823z"/></g></svg>