<svg id="Capa_1" enable-background="new 0 0 512 512" height="512" viewBox="0 0 512 512" width="512" xmlns="http://www.w3.org/2000/svg"><g><path d="m437.02 74.98c-48.352-48.351-112.64-74.98-181.02-74.98s-132.667 26.629-181.02 74.98c-48.351 48.352-74.98 112.64-74.98 181.02s26.629 132.668 74.98 181.02c48.353 48.351 112.64 74.98 181.02 74.98s132.668-26.629 181.02-74.98 74.98-112.64 74.98-181.02-26.629-132.668-74.98-181.02zm59.852 173.52h-75.049c-3.825-85.577-72.746-154.498-158.323-158.323v-75.049c126.938 3.901 229.471 106.434 233.372 233.372zm-352.811-115.045-52.998-52.999c41.447-38.966 96.64-63.459 157.437-65.328v75.042c-33.676 1.48-65.522 12.927-92.515 33.338-4.134 3.126-8.11 6.45-11.924 9.947zm-63.605-42.392 53.016 53.016c-16.762 18.398-29.398 40.481-36.516 64.27-1.188 3.969 1.067 8.148 5.035 9.336 3.971 1.184 8.148-1.066 9.335-5.036 18.964-63.382 78.456-107.649 144.674-107.649 83.262 0 151 67.738 151 151s-67.738 151-151 151-151-67.738-151-151c0-5.1.259-10.255.769-15.322.415-4.121-2.59-7.798-6.711-8.213-4.121-.429-7.799 2.589-8.214 6.711-.56 5.564-.844 11.224-.844 16.824 0 19.842 3.504 38.88 9.918 56.533l-69.329 28.717c-10.062-26.517-15.589-55.248-15.589-85.25 0-63.752 24.893-121.792 65.456-164.937zm-44.125 264.044 69.351-28.726c7.165 15.241 16.575 29.226 27.812 41.518l-53.038 53.039c-18.1-19.252-33.087-41.462-44.125-65.831zm219.669 141.893c-63.752 0-121.791-24.893-164.937-65.456l53.038-53.039c29.534 27 68.825 43.495 111.899 43.495 89.018 0 161.886-70.436 165.823-158.5h75.049c-3.978 129.43-110.494 233.5-240.872 233.5z"/></g></svg>