<svg height="512pt" viewBox="-7 0 512 512.0005" width="512pt" xmlns="http://www.w3.org/2000/svg"><path d="m269.546875 163.925781c1.453125 1.25 3.042969 2.226563 4.707031 2.960938v28.453125c0 4.144531 3.355469 7.5 7.5 7.5 4.140625 0 7.5-3.355469 7.5-7.5v-28.453125c1.664063-.734375 3.253906-1.710938 4.703125-2.960938 23.097657-19.851562 36.339844-48.6875 36.339844-79.109375 0-8.375-.996094-16.710937-2.960937-24.777344-.980469-4.023437-5.039063-6.480468-9.0625-5.511718-4.023438.984375-6.492188 5.039062-5.511719 9.0625 1.683593 6.90625 2.539062 14.046875 2.539062 21.226562 0 23.730469-9.417969 46.328125-26.046875 63.019532v-78.433594c0-4.144532-3.359375-7.5-7.5-7.5-4.144531 0-7.5 3.355468-7.5 7.5v78.433594c-16.628906-16.691407-26.046875-39.289063-26.046875-63.019532 0-27.269531 12.226563-52.683594 33.546875-69.75 7.074219 5.664063 13.230469 12.339844 18.296875 19.835938 2.320313 3.433594 6.984375 4.335937 10.414063 2.015625 3.433594-2.316407 4.335937-6.980469 2.015625-10.414063-5.941407-8.792968-13.167969-16.613281-21.476563-23.246094-5.449218-4.34375-13.054687-4.34375-18.5 0-24.976562 19.929688-39.296875 49.65625-39.296875 81.558594 0 30.421875 13.246094 59.257813 36.339844 79.109375zm0 0"/><path d="m338.675781 236.21875c1.917969 0 3.835938-.730469 5.300781-2.191406l20.132813-20.125c1.695313.65625 3.511719 1.089844 5.417969 1.234375 2.632812.195312 5.261718.296875 7.878906.296875 27.59375 0 54.121094-10.902344 73.777344-30.546875 22.566406-22.5625 33.464844-53.707031 29.902344-85.445313-.777344-6.925781-6.15625-12.308594-13.085938-13.082031-31.75-3.5625-62.90625 7.332031-85.472656 29.890625-21.519532 21.511719-32.546875 51.265625-30.261719 81.628906.144531 1.90625.578125 3.71875 1.230469 5.417969l-20.125 20.121094c-2.929688 2.929687-2.929688 7.679687-.003906 10.605469 1.46875 1.464843 3.386718 2.195312 5.308593 2.195312zm54.457031-109.359375c16.914063-16.910156 39.460938-26.164063 63.0625-26.164063 3.316407 0 6.65625.183594 10 .554688 3.007813 27.132812-6.328124 53.742188-25.617187 73.027344-16.785156 16.777344-39.429687 26.09375-62.988281 26.148437l55.472656-55.453125c2.929688-2.929687 2.929688-7.675781.003906-10.605468-2.929687-2.929688-7.675781-2.929688-10.609375-.003907l-55.480469 55.464844c.046876-23.554687 9.375-46.191406 26.15625-62.96875zm0 0"/><path d="m113.578125 184.886719c19.65625 19.644531 46.183594 30.546875 73.777344 30.546875 2.617187 0 5.25-.101563 7.878906-.296875 1.90625-.144531 3.722656-.578125 5.421875-1.234375l20.128906 20.125c1.464844 1.460937 3.382813 2.191406 5.300782 2.191406 1.921874 0 3.839843-.730469 5.304687-2.195312 2.929687-2.929688 2.929687-7.679688 0-10.605469l-20.128906-20.121094c.65625-1.699219 1.089843-3.511719 1.230469-5.417969 2.289062-30.367187-8.742188-60.117187-30.261719-81.628906-22.566407-22.558594-53.71875-33.453125-85.472657-29.894531-6.925781.777343-12.308593 6.15625-13.082031 13.082031-3.5625 31.742188 7.335938 62.886719 29.902344 85.449219zm-15.011719-83.636719c27.15625-3.003906 53.769532 6.324219 73.0625 25.609375 16.785156 16.773437 26.109375 39.410156 26.160156 62.964844l-55.484374-55.460938c-2.929688-2.929687-7.679688-2.929687-10.605469 0-2.929688 2.929688-2.929688 7.679688 0 10.609375l55.476562 55.453125c-23.570312-.054687-46.207031-9.371093-62.988281-26.148437-19.292969-19.28125-28.625-45.894532-25.621094-73.027344zm0 0"/><path d="m492.273438 262.019531c-7.519532-7.832031-18.058594-12.320312-28.90625-12.320312-9.519532 0-18.753907 3.402343-25.988282 9.585937-.070312.0625-.140625.121094-.210937.1875l-94.6875 87.179688c-.652344.527344-1.46875.816406-2.308594.816406h-71.136719c-4.140625 0-7.507812-3.371094-7.507812-7.511719 0-2.003906.78125-3.890625 2.183594-5.300781 1.425781-1.417969 3.316406-2.203125 5.324218-2.203125h50.816406c17.292969 0 31.363282-14.058594 31.363282-31.34375 0-8.371094-3.257813-16.242187-9.1875-22.183594-5.929688-5.910156-13.804688-9.167969-22.175782-9.167969h-126.15625c-27.9375 0-54.378906 10.6875-74.460937 30.097657l-44.035156 42.574219-.183594-.183594c-5.957031-5.953125-15.644531-5.953125-21.601563 0l-48.9375 48.921875c-2.886718 2.882812-4.476562 6.71875-4.476562 10.800781s1.589844 7.917969 4.476562 10.800781l94.796876 94.765625c2.980468 2.976563 6.890624 4.464844 10.800781 4.464844 3.914062 0 7.828125-1.488281 10.804687-4.464844l48.9375-48.921875c2.886719-2.882812 4.476563-6.71875 4.476563-10.800781 0-2.894531-.8125-5.65625-2.308594-8.054688 9.363281-8.425781 21.363281-13.042968 34.035156-13.042968h144.890625c11.84375 0 23.105469-5.113282 30.894532-14.027344l111.035156-127.066406c5.996094-6.871094 5.753906-17.015625-.566406-23.601563zm-10.730469 13.734375-111.03125 127.0625c-4.941407 5.652344-12.085938 8.894532-19.601563 8.894532h-144.890625c-16.539062 0-32.183593 6.085937-44.34375 17.160156l-46.363281-46.347656c-2.933594-2.929688-7.679688-2.925782-10.609375.003906-2.925781 2.929687-2.925781 7.675781.003906 10.605468l51.46875 51.449219c.015625.015625.027344.035157.042969.050781.023438.023438.050781.042969.074219.066407l2.917969 2.921875c.027343.023437.082031.078125.082031.191406s-.054688.167969-.082031.195312l-48.933594 48.917969c-.109375.109375-.289063.109375-.398438 0l-94.800781-94.765625c-.023437-.023437-.078125-.078125-.078125-.191406s.054688-.167969.082031-.191406l48.933594-48.921875c.109375-.109375.289063-.109375.398437 0l17.441407 17.433593c2.929687 2.929688 7.679687 2.929688 10.605469 0 2.929687-2.929687 2.925781-7.679687 0-10.605468l-6.652344-6.648438 43.847656-42.394531c17.273438-16.691406 40.011719-25.882813 64.035156-25.882813h126.160156c4.371094 0 8.484376 1.703126 11.570313 4.777344 3.089844 3.097656 4.792969 7.207032 4.792969 11.574219 0 9.011719-7.339844 16.34375-16.363282 16.34375h-50.820312c-6 0-11.648438 2.335937-15.925781 6.597656-4.242188 4.253907-6.582031 9.902344-6.582031 15.90625 0 12.410157 10.097656 22.511719 22.507812 22.511719h71.140625c4.441406 0 8.75-1.59375 12.128906-4.480469.070313-.058593.140625-.121093.207031-.183593l94.710938-87.199219c4.507812-3.808594 10.238281-5.90625 16.148438-5.90625 6.886718 0 13.3125 2.738281 18.085937 7.707031.898437.933594.9375 2.375.089844 3.347656zm0 0"/></svg>