<svg id="Icons" height="512" viewBox="0 0 74 74" width="512" xmlns="http://www.w3.org/2000/svg"><path d="m71 72h-18.56a1 1 0 0 1 0-2h18.56a1 1 0 0 1 0 2z"/><path d="m35.47 72h-2.91a1 1 0 0 1 0-2h2.91a1 1 0 0 1 0 2z"/><path d="m25.56 72h-16.56a1 1 0 0 1 -1-1v-68a1 1 0 0 1 2 0v67h15.56a1 1 0 1 1 0 2z"/><path d="m45.44 72h-2.97a1 1 0 0 1 0-2h2.97a1 1 0 0 1 0 2z"/><path d="m4 6.292h-1a1 1 0 0 1 0-2h1a1 1 0 0 1 0 2z"/><path d="m4 12.958h-1a1 1 0 0 1 0-2h1a1 1 0 0 1 0 2z"/><path d="m4 19.625h-1a1 1 0 0 1 0-2h1a1 1 0 0 1 0 2z"/><path d="m4 26.292h-1a1 1 0 0 1 0-2h1a1 1 0 0 1 0 2z"/><path d="m4 32.958h-1a1 1 0 0 1 0-2h1a1 1 0 0 1 0 2z"/><path d="m4 39.625h-1a1 1 0 0 1 0-2h1a1 1 0 0 1 0 2z"/><path d="m4 46.292h-1a1 1 0 0 1 0-2h1a1 1 0 0 1 0 2z"/><path d="m4 52.958h-1a1 1 0 0 1 0-2h1a1 1 0 0 1 0 2z"/><path d="m4 59.625h-1a1 1 0 0 1 0-2h1a1 1 0 0 1 0 2z"/><path d="m4 66.292h-1a1 1 0 0 1 0-2h1a1 1 0 0 1 0 2z"/><path d="m17.2 56.717a1 1 0 0 1 -.766-1.642l13.221-15.783a1 1 0 0 1 1.408-.125l6.562 5.5 9.275-11.073a1 1 0 0 1 1.409-.125l6.561 5.5 11.166-13.328a1 1 0 0 1 1.533 1.284l-11.807 14.093a1 1 0 0 1 -1.408.124l-6.562-5.5-9.276 11.07a1 1 0 0 1 -1.409.125l-6.561-5.5-12.582 15.022a1 1 0 0 1 -.764.358z"/><path d="m67.35 33.5a1 1 0 0 1 -.995-.912l-.461-5.22-5.22.461a1 1 0 1 1 -.175-1.993l6.215-.548a1 1 0 0 1 1.086.912l.549 6.216a1 1 0 0 1 -.908 1.084c-.032 0-.062 0-.091 0z"/></svg>