<?xml version="1.0" encoding="UTF-8"?>
<svg xmlns="http://www.w3.org/2000/svg" width="512" height="512" viewBox="0 0 512 512"><g><path d="M487.43,166.74A43.068,43.068,0,0,0,488,160a72.1,72.1,0,0,0-44.8-66.65A248.155,248.155,0,0,0,143.92,34.71,71.965,71.965,0,0,0,16,80c0,13.35,7.54,32.42,22.45,56.83a247.994,247.994,0,1,0,448.98,29.91ZM472,160a32.743,32.743,0,0,1-.61,5.82c-.02.07-.03.16-.05.24-4.89,25.51-36.98,70.13-55.34,93.25-19.91-25.07-56-75.45-56-99.31a56,56,0,0,1,112,0ZM32,80a56,56,0,0,1,112,0c0,23.86-36.09,74.24-56,99.31C68.09,154.24,32,103.86,32,80ZM58.34,370.34a7.978,7.978,0,0,0-2.07,3.68,232.174,232.174,0,0,1-7.86-221.71c.32.48.64.95.97,1.44,16.04,23.64,31.82,42.58,32.48,43.38a8,8,0,0,0,12.28,0c.66-.8,16.44-19.74,32.48-43.38q1.6-2.37,3.13-4.68l6.25,6.24v17.38l-5.66,5.65a8.015,8.015,0,0,0,0,11.32l24,24a7.953,7.953,0,0,0,3.13,1.93l20.21,6.73L183.57,240l-6.98,20.93L171.06,272H152a8.081,8.081,0,0,0-3.58.84l-48,24a8.007,8.007,0,0,0-2.08,12.82L120,331.31v9.38l-12.74,12.73L96,359.06l-12.42-6.22a8.034,8.034,0,0,0-9.24,1.5ZM256,488a232.224,232.224,0,0,1-56.3-6.91L217.89,472H240a8.081,8.081,0,0,0,3.58-.84l16-8a8.356,8.356,0,0,0,2.08-1.5l6.66-6.67,17.52-5.84,12.5,12.51A8.008,8.008,0,0,0,304,464h16a8.008,8.008,0,0,0,5.66-2.34L344,443.31l10.34,10.35a8.11,8.11,0,0,0,2.08,1.5l10,4.99A230.863,230.863,0,0,1,256,488Zm164.05-67.95a234.355,234.355,0,0,1-37.33,30.36l-17.98-8.99-15.08-15.08a8.015,8.015,0,0,0-11.32,0L316.69,448h-9.38l-13.65-13.66a8.007,8.007,0,0,0-8.19-1.93l-24,8a7.953,7.953,0,0,0-3.13,1.93l-7.08,7.08L238.11,456H216a8.081,8.081,0,0,0-3.58.84l-34.96,17.49A231.864,231.864,0,0,1,80,407.13V392a8.081,8.081,0,0,0-.84-3.58l-5.43-10.84,7.85-7.85,10.84,5.43a8.049,8.049,0,0,0,7.16,0l16-8a8.356,8.356,0,0,0,2.08-1.5l16-16A8.008,8.008,0,0,0,136,344V328a8.008,8.008,0,0,0-2.34-5.66l-16-16-.16-.15L153.89,288H176a8.011,8.011,0,0,0,7.16-4.42l8-16a7.979,7.979,0,0,0,.43-1.05l8-24a7.965,7.965,0,0,0,0-5.06l-8-24a8.013,8.013,0,0,0-5.06-5.06l-22.21-7.4L147.31,184l2.35-2.34A8.008,8.008,0,0,0,152,176V152a8.008,8.008,0,0,0-2.34-5.66l-11.13-11.13C152.78,111.58,160,93.05,160,80a71.618,71.618,0,0,0-7.39-31.74,232.273,232.273,0,0,1,190.65-7.23l-51.5,32.19a7.992,7.992,0,0,0-3.35,9.31l6.95,20.86-6.52,13.03a8.052,8.052,0,0,0-.43,6.11l8,24a7.979,7.979,0,0,0,.43,1.05L303.06,160l-5.64,11.26-7.08,7.08A8.008,8.008,0,0,0,288,184v14.7l-6.72,20.17-21.3,14.2-15.56,7.77a8.006,8.006,0,0,0-4.01,4.63l-8,24A8.074,8.074,0,0,0,232,272v8a8.081,8.081,0,0,0,.84,3.58l8,16a8.006,8.006,0,0,0,4.63,4.01l24,8a8.069,8.069,0,0,0,3.96.28l83.88-15.25,13.03,13.04a8.023,8.023,0,0,0,7.6,2.1l27.61-6.9,4.79,4.8a8.356,8.356,0,0,0,2.08,1.5l14.84,7.42,7.08,7.08a8.034,8.034,0,0,0,9.24,1.5L457.89,320h2.8l4.96,4.96,7.62,12.7A231.275,231.275,0,0,1,420.05,420.05Zm58.81-104.17a8.5,8.5,0,0,0-1.2-1.54l-8-8A8.008,8.008,0,0,0,464,304h-8a8.081,8.081,0,0,0-3.58.84l-10.84,5.43-3.92-3.93a8.356,8.356,0,0,0-2.08-1.5l-14.84-7.42-7.08-7.08a8.023,8.023,0,0,0-7.6-2.1l-27.61,6.9-12.79-12.8a8.024,8.024,0,0,0-7.09-2.21l-85.99,15.63-18.91-6.3L248,278.11V273.3l6.54-19.63,13.04-6.51c.29-.15.58-.32.86-.5l24-16a8,8,0,0,0,3.15-4.13l8-24A8.074,8.074,0,0,0,304,200V187.31l5.66-5.65a8.356,8.356,0,0,0,1.5-2.08l8-16a8.049,8.049,0,0,0,0-7.16l-7.75-15.49-6.77-20.32,6.52-13.03a8.052,8.052,0,0,0,.43-6.11l-6.01-18.02,55.15-34.47A232.354,232.354,0,0,1,415.99,88,72.081,72.081,0,0,0,344,160c0,16.29,11.23,41.1,33.38,73.75,16.04,23.64,31.82,42.58,32.48,43.38a8,8,0,0,0,12.28,0c.66-.8,16.44-19.74,32.48-43.38q16.065-23.685,24.43-41.79a234.131,234.131,0,0,1,.76,125.5Z"/><path d="M224,376H203.313l-13.656-13.657A8,8,0,0,0,184,360H168a8,8,0,0,0-7.155,4.422l-16,32a8,8,0,0,0,0,7.156l8,16a8,8,0,0,0,4.625,4.012l24,8a8,8,0,0,0,9.685-4.012l4.9-9.795,17.417,5.807a8,8,0,0,0,8.187-1.933l8-8A8,8,0,0,0,232,408V384A8,8,0,0,0,224,376Zm-8,28.687-2.161,2.16L194.53,400.41a8,8,0,0,0-9.685,4.012l-4.9,9.795-14.273-4.759L160.944,400l12-24h7.743l13.656,13.657A8,8,0,0,0,200,392h16Z"/><path d="M392,160a24,24,0,1,0,24-24A24.028,24.028,0,0,0,392,160Zm32,0a8,8,0,1,1-8-8A8.009,8.009,0,0,1,424,160Z"/><path d="M112,80a24,24,0,1,0-24,24A24.028,24.028,0,0,0,112,80ZM80,80a8,8,0,1,1,8,8A8.009,8.009,0,0,1,80,80Z"/></g></svg>
