<svg id="Layer_5" enable-background="new 0 0 64 64" height="512" viewBox="0 0 64 64" width="512" xmlns="http://www.w3.org/2000/svg"><g><path d="m56 46.262v-37.262c0-2.206-1.794-4-4-4s-4 1.794-4 4v37.261c-2.199 1.528-3.333 4.157-2.913 6.854.47 3.023 3.023 5.478 6.071 5.835.275.032.552.049.826.049 1.716-.001 3.381-.624 4.667-1.768 1.493-1.328 2.349-3.234 2.349-5.231 0-2.289-1.136-4.437-3-5.738zm-4-39.262c1.103 0 2 .897 2 2v6h-4v-6c0-1.103.897-2 2-2zm3.321 48.737c-1.08.962-2.472 1.396-3.931 1.227-2.173-.255-3.993-2.003-4.327-4.156-.323-2.073.634-4.088 2.438-5.133l.499-.289v-30.386h4v30.386l.499.289c1.543.892 2.501 2.55 2.501 4.325 0 1.426-.611 2.788-1.679 3.737z"/><path d="m60 44.461v-35.461c0-4.411-3.589-8-8-8s-8 3.589-8 8v19.645c-1.091-1.934-2.439-3.675-4-5.187v-12.458h3.618l-4.276-8.553c-.447-.892-1.344-1.447-2.342-1.447s-1.895.555-2.342 1.447l-4.276 8.553h3.618v8.279c-2.176-1.045-4.531-1.75-7-2.069v-2.21h3.618l-4.276-8.553c-.447-.892-1.344-1.447-2.342-1.447s-1.895.555-2.342 1.447l-4.276 8.553h3.618v2.202c-2.477.324-4.834 1.038-7 2.089v-8.291h3.618l-4.276-8.553c-.447-.892-1.344-1.447-2.342-1.447s-1.895.555-2.342 1.447l-4.276 8.553h3.618v12.5c-4.312 4.183-7 10.032-7 16.5 0 12.683 10.317 23 23 23 6.72 0 13.074-2.958 17.421-7.998.158.555.358 1.104.606 1.644 1.478 3.219 4.559 5.59 8.04 6.188h.001c.637.109 1.274.163 1.908.163 2.592 0 5.105-.9 7.104-2.584 2.491-2.1 3.92-5.166 3.92-8.413 0-2.781-1.089-5.505-3-7.539zm-16-10.863v7.402h-5c-.552 0-1-.448-1-1 0-1.654-1.346-3-3-3h-7c-.552 0-1-.448-1-1s.448-1 1-1h6c1.654 0 3-1.346 3-3s-1.346-3-3-3h-2c-.552 0-1-.449-1-1 0-1.654-1.346-3-3-3h-2c-.552 0-1-.449-1-1s.448-1 1-1h10.367c3.52 2.558 6.233 6.216 7.633 10.598zm-10.382-24.598 2.829-5.658c.211-.423.895-.422 1.105 0l2.83 5.658h-2.382v12.731c-.643-.492-1.308-.955-2-1.377v-11.354zm-13 4 2.829-5.658c.211-.423.895-.422 1.105 0l2.83 5.658h-2.382v4.04c-.333-.014-.664-.04-1-.04-.335 0-.668.011-1 .025v-4.025zm-13-4 2.829-5.658c.211-.423.895-.422 1.105 0l2.83 5.658h-2.382v11.388c-.692.425-1.358.888-2 1.382v-12.77zm-3.393 24h11.775c.552 0 1 .448 1 1s-.448 1-1 1h-4c-1.654 0-3 1.346-3 3s1.346 3 3 3h1c.552 0 1 .448 1 1s-.448 1-1 1h-2c-1.654 0-3 1.346-3 3 0 .552-.448 1-1 1h-2.775c-.779-2.193-1.225-4.543-1.225-7s.446-4.807 1.225-7zm.83 16h1.945c1.654 0 3-1.346 3-3 0-.552.448-1 1-1h2c1.654 0 3-1.346 3-3s-1.346-3-3-3h-1c-.552 0-1-.448-1-1s.448-1 1-1h4c1.654 0 3-1.346 3-3s-1.346-3-3-3h-10.945c3.379-7.082 10.589-12 18.945-12 3.186 0 6.223.718 8.958 2h-6.958c-1.654 0-3 1.346-3 3s1.346 3 3 3h2c.552 0 1 .449 1 1 0 1.654 1.346 3 3 3h2c.552 0 1 .449 1 1s-.448 1-1 1h-6c-1.654 0-3 1.346-3 3s1.346 3 3 3h7c.552 0 1 .448 1 1 0 1.654 1.346 3 3 3h5v1.46c-1.248 1.323-2.113 2.881-2.585 4.54h-7.415c-.552 0-1-.448-1-1 0-1.654-1.346-3-3-3h-7c-1.654 0-3 1.346-3 3 0 .552-.448 1-1 1h-2c-1.654 0-3 1.346-3 3s1.346 3 3 3h6c.552 0 1 .448 1 1 0 1.654 1.346 3 3 3h5.917c-2.755 1.294-5.792 2-8.917 2-8.356 0-15.566-4.918-18.945-12zm31.253 8h-9.308c-.552 0-1-.448-1-1 0-1.654-1.346-3-3-3h-6c-.552 0-1-.448-1-1s.448-1 1-1h2c1.654 0 3-1.346 3-3 0-.552.448-1 1-1h7c.552 0 1 .448 1 1 0 1.654 1.346 3 3 3h7.037c-.039.435-.045.873-.032 1.312-1.323 1.824-2.913 3.398-4.697 4.688zm21.483 1.884c-2.035 1.714-4.728 2.436-7.385 1.979h.001c-2.842-.488-5.355-2.425-6.562-5.052-1.614-3.517-.886-7.532 1.855-10.23l.3-.294v-36.287c0-3.309 2.691-6 6-6s6 2.691 6 6v36.287l.299.294c1.717 1.69 2.701 4.029 2.701 6.419 0 2.656-1.17 5.165-3.209 6.884z"/></g></svg>