<svg id="Layer_5" enable-background="new 0 0 64 64" height="512" viewBox="0 0 64 64" width="512" xmlns="http://www.w3.org/2000/svg"><g><path d="m15 20c.998 0 1.896-.555 2.342-1.447l4.276-8.553h-3.618v-9h-2v11h2.382l-2.829 5.658c-.211.422-.895.422-1.105 0l-2.83-5.658h2.382v-10.913h-2v8.913h-3.618l4.276 8.553c.446.892 1.344 1.447 2.342 1.447z"/><path d="m49 20c.998 0 1.896-.555 2.342-1.447l4.276-8.553h-3.618v-8.913h-2v10.913h2.382l-2.829 5.658c-.211.422-.895.422-1.105 0l-2.83-5.658h2.382v-11h-2v9h-3.618l4.276 8.553c.446.892 1.344 1.447 2.342 1.447z"/><path d="m32 20c.998 0 1.896-.555 2.342-1.447l4.276-8.553h-3.618v-9h-2v11h2.382l-2.829 5.658c-.211.422-.895.422-1.105 0l-2.83-5.658h2.382v-11h-2v9h-3.618l4.276 8.553c.446.892 1.344 1.447 2.342 1.447z"/><path d="m58.664 23.111c-.924.477-1.723.889-3.418.889s-2.495-.412-3.419-.889c-1.01-.52-2.155-1.111-4.336-1.111-2.18 0-3.324.591-4.333 1.111-.924.477-1.722.889-3.416.889-1.695 0-2.493-.412-3.417-.889-1.01-.52-2.155-1.111-4.335-1.111s-3.324.591-4.333 1.111c-.924.477-1.722.889-3.416.889s-2.491-.412-3.415-.889c-1.009-.52-2.153-1.111-4.332-1.111s-3.323.591-4.333 1.111c-.923.477-1.721.889-3.414.889-1.694 0-2.491-.412-3.415-.889-1.009-.52-2.152-1.111-4.332-1.111v2c1.694 0 2.491.412 3.415.889 1.009.52 2.152 1.111 4.332 1.111 2.179 0 3.323-.591 4.332-1.111.923-.477 1.721-.889 3.415-.889s2.491.412 3.415.889c1.008.52 2.152 1.111 4.332 1.111s3.324-.591 4.333-1.111c.924-.477 1.721-.889 3.416-.889s2.493.412 3.417.889c1.01.52 2.154 1.111 4.335 1.111 2.18 0 3.324-.591 4.333-1.111.924-.477 1.721-.889 3.416-.889 1.696 0 2.495.412 3.419.889 1.009.52 2.154 1.111 4.336 1.111 2.181 0 3.326-.591 4.335-1.111.924-.477 1.723-.889 3.419-.889v-2c-2.182 0-3.326.591-4.336 1.111z"/><path d="m55 57.654v-4.154l6.801-5.101c.641-.48 1.056-1.182 1.169-1.975.114-.793-.089-1.583-.57-2.225-.954-1.275-2.924-1.558-4.199-.601l-3.201 2.403v-2.501l6.801-5.101c.641-.48 1.056-1.182 1.169-1.975.114-.793-.089-1.583-.57-2.225-.954-1.274-2.924-1.558-4.199-.601l-3.201 2.403v-4.001c0-1.654-1.346-3-3-3s-3 1.346-3 3v5.5l-1.201-.9c-1.275-.957-3.245-.675-4.198.601-.481.642-.684 1.432-.57 2.225.113.793.529 1.494 1.169 1.975l4.8 3.6v10.549c-1.352-1.533-3.95-2.55-7-2.55-2.896 0-5.497.939-6.901 2.437-.968-.278-2.009-.437-3.099-.437-4.525 0-8.27 2.614-8.897 6h-4.103v-14l4.8-3.601c.641-.48 1.056-1.182 1.169-1.975.114-.793-.089-1.583-.57-2.225-.955-1.274-2.923-1.557-4.199-.601l-1.2.902v-5.5c0-1.654-1.346-3-3-3s-3 1.346-3 3v4l-3.202-2.4c-1.275-.957-3.244-.674-4.198.6-.481.642-.684 1.432-.57 2.225.113.793.529 1.494 1.169 1.975l6.801 5.1v2.5l-3.202-2.4c-1.275-.957-3.244-.674-4.198.6-.481.642-.684 1.432-.57 2.225.113.793.529 1.494 1.169 1.975l6.801 5.1v5.5h-12v2h62v-2h-4.155c-.453-1.447-1.877-2.649-3.845-3.346zm1.608 3.346h-11.216c.825-1.072 2.9-2 5.608-2s4.783.928 5.608 2zm-11.208-21.2c-.214-.16-.352-.395-.39-.658-.038-.268.028-.524.191-.742.321-.426.974-.518 1.398-.2l4.401 3.3v-9.5c0-.552.449-1 1-1s1 .448 1 1v8.001l6.401-4.802c.427-.318 1.079-.227 1.399.2.163.218.229.475.19.742-.038.264-.176.498-.39.658l-7.6 5.701v7.501l6.401-4.802c.427-.318 1.079-.227 1.399.2.163.218.229.475.19.742-.038.264-.176.498-.39.658l-7.6 5.701v4.658c-.638-.1-1.306-.158-2-.158v-13.001zm-3.4 15.2c3.032 0 5.271 1.163 5.849 2.39-2.406.628-4.178 1.962-4.694 3.61h-2.258c-.361-1.947-1.75-3.637-3.731-4.723 1.131-.78 2.931-1.277 4.834-1.277zm-10 2c3.38 0 6.208 1.721 6.859 4h-13.718c.651-2.279 3.479-4 6.859-4zm-24.601-8.2c-.214-.16-.352-.395-.39-.658-.038-.268.028-.524.191-.742.321-.427.974-.519 1.398-.2l6.402 4.8v-7.5l-7.601-5.7c-.214-.16-.352-.395-.39-.658-.038-.268.028-.524.191-.742.321-.426.974-.518 1.398-.2l6.402 4.8v-8c0-.552.449-1 1-1s1 .448 1 1v9.5l4.4-3.301c.427-.318 1.078-.227 1.399.2.163.218.229.475.19.742-.038.264-.176.498-.39.658l-5.599 4.201v15h-2v-6.5z"/></g></svg>