<svg height="511pt" viewBox="0 -21 511.99929 511" width="511pt" xmlns="http://www.w3.org/2000/svg"><path d="m426.671875 85.835938c23.5625 0 42.667969-19.105469 42.667969-42.667969 0-23.566407-19.101563-42.667969-42.667969-42.667969-23.5625 0-42.667969 19.101562-42.667969 42.667969.027344 23.550781 19.113282 42.636719 42.667969 42.667969zm0-68.269532c14.136719 0 25.601563 11.460938 25.601563 25.601563 0 14.136719-11.464844 25.597656-25.601563 25.597656-14.140625 0-25.601563-11.460937-25.601563-25.597656 0-14.140625 11.460938-25.601563 25.601563-25.601563zm0 0"/><path d="m145.070312 265.035156c0 18.851563 15.28125 34.132813 34.132813 34.132813s34.132813-15.28125 34.132813-34.132813c0-18.851562-15.28125-34.132812-34.132813-34.132812s-34.132813 15.28125-34.132813 34.132812zm51.199219 0c0 9.425782-7.640625 17.066406-17.066406 17.066406s-17.066406-7.640624-17.066406-17.066406c0-9.425781 7.640625-17.066406 17.066406-17.066406s17.066406 7.640625 17.066406 17.066406zm0 0"/><path d="m460.804688 358.90625c-14.136719 0-25.597657 11.460938-25.597657 25.597656 0 14.140625 11.460938 25.601563 25.597657 25.601563 14.140624 0 25.601562-11.460938 25.601562-25.601563 0-14.136718-11.460938-25.597656-25.601562-25.597656zm0 34.132812c-4.710938 0-8.53125-3.820312-8.53125-8.535156 0-4.710937 3.820312-8.53125 8.53125-8.53125 4.714843 0 8.535156 3.820313 8.535156 8.53125 0 4.714844-3.820313 8.535156-8.535156 8.535156zm0 0"/><path d="m307.203125 247.96875h-17.066406c-9.425781 0-17.066407 7.640625-17.066407 17.066406v34.132813c0 9.425781 7.640626 17.070312 17.066407 17.070312h17.066406c9.425781 0 17.066406-7.644531 17.066406-17.070312v-8.53125h-17.066406v8.53125h-17.066406v-34.132813h17.066406v8.535156h17.066406v-8.535156c0-9.425781-7.640625-17.066406-17.066406-17.066406zm0 0"/><path d="m375.472656 247.96875h-17.070312c-9.421875 0-17.066406 7.640625-17.066406 17.066406v34.132813c0 9.425781 7.644531 17.070312 17.066406 17.070312h17.070312c9.425782 0 17.066406-7.644531 17.066406-17.070312v-34.132813c0-9.425781-7.640624-17.066406-17.066406-17.066406zm0 51.203125h-17.070312v-34.136719h17.070312zm0 0"/><path d="m477.660156 193.695312c18.0625-27.601562 10.328125-64.625-17.277344-82.6875-27.605468-18.066406-64.628906-10.332031-82.691406 17.273438-.722656 1.105469-1.410156 2.234375-2.058594 3.386719-26.484374-33.097657-74.78125-38.457031-107.878906-11.972657-33.097656 26.484376-38.457031 74.78125-11.972656 107.878907.238281.292969.476562.589843.714844.878906-26.804688 21.039063-33.96875 58.632813-16.785156 88.058594-4.769532 2.710937-9.207032 5.976562-13.207032 9.734375-32.179687-7.273438-64.164062 12.914062-71.4375 45.089844-.347656 1.53125-.632812 3.078124-.859375 4.636718h-17.671875v-17.066406c0-4.714844-3.820312-8.535156-8.535156-8.535156h-34.132812c-4.710938 0-8.53125 3.820312-8.53125 8.535156v8.53125h-76.800782c-4.714844 0-8.535156 3.820312-8.535156 8.535156v68.265625c0 4.714844 3.820312 8.535157 8.535156 8.535157h76.800782v8.53125c0 4.714843 3.820312 8.535156 8.53125 8.535156h34.132812c4.714844 0 8.535156-3.820313 8.535156-8.535156v-17.066407h136.535156c29.101563.015625 55.003907-18.441406 64.496094-45.953125 6.730469 2.1875 13.761719 3.296875 20.835938 3.285156 32.214844-.183593 59.976562-22.726562 66.765625-54.21875 47.089843.859376 85.957031-36.617187 86.816406-83.707031.503906-27.484375-12.277344-53.527343-34.324219-69.949219zm-392.324218 242.011719h-68.269532v-51.203125h68.269532zm34.132812-51.203125v68.269532h-17.066406v-85.335938h17.066406zm307.203125-54.210937c-2.605469-.011719-5.210937-.171875-7.800781-.480469-2.296875-.285156-4.609375.394531-6.390625 1.878906-1.792969 1.457032-2.910157 3.585938-3.097657 5.886719-2.328124 26.457031-24.417968 46.789063-50.980468 46.925781-7.917969.003906-15.726563-1.851562-22.800782-5.417968-4.214843-2.105469-9.339843-.398438-11.445312 3.820312-.363281.722656-.621094 1.492188-.765625 2.289062-4.414063 24.320313-25.601563 41.996094-50.320313 41.976563h-136.535156v-34.132813h25.601563c4.710937 0 8.53125-3.820312 8.53125-8.535156.007812-23.5625 19.113281-42.660156 42.679687-42.65625 4.445313.003906 8.863282.699219 13.09375 2.0625 3.175782 1.023438 6.65625.105469 8.910156-2.355468 5.515626-6.058594 12.394532-10.714844 20.070313-13.582032 4.421875-1.632812 6.683594-6.542968 5.050781-10.960937-.328125-.890625-.804687-1.722657-1.40625-2.457031-17.914062-21.875-14.703125-54.136719 7.175782-72.050782 2.355468-1.929687 4.875-3.644531 7.535156-5.125 4.117187-2.292968 5.59375-7.492187 3.296875-11.609375-.445313-.792969-1.011719-1.511719-1.683594-2.128906-12.394531-11.238281-19.441406-27.207031-19.386719-43.9375-.019531-32.964844 26.6875-59.707031 59.65625-59.726563 22.910156-.011718 43.808594 13.089844 53.777344 33.71875 1.585938 3.199219 4.976562 5.09375 8.535156 4.769532 3.5625-.363282 6.523438-2.914063 7.40625-6.382813 5.71875-22.859375 28.886719-36.757812 51.746094-31.035156 22.859375 5.71875 36.753906 28.886719 31.035156 51.746094-1.617187 6.46875-4.730468 12.46875-9.085937 17.519531-3.070313 3.574219-2.660157 8.960938.914062 12.03125.382813.328125.792969.621094 1.226563.878906 32.503906 19.046875 43.414062 60.839844 24.367187 93.34375-12.253906 20.90625-34.675781 33.746094-58.910156 33.726563zm0 0"/><path d="m461.839844 239.4375c0-14.710938-11.925782-26.636719-26.632813-26.636719-7.066406 0-13.839843 2.804688-18.835937 7.800781l-12.800782 12.800782 12.066407 12.066406 12.800781-12.800781c3.785156-3.617188 9.746094-3.617188 13.535156 0 3.730469 3.742187 3.730469 9.792969 0 13.535156l-29.867187 29.867187c-3.332031 3.332032-3.332031 8.734376 0 12.066407 1.601562 1.601562 3.769531 2.5 6.03125 2.5h42.667969v-17.066407h-22.066407l15.300781-15.300781c5.011719-4.984375 7.820313-11.765625 7.800782-18.832031zm0 0"/></svg>