<svg id="Layer_5" enable-background="new 0 0 64 64" height="512" viewBox="0 0 64 64" width="512" xmlns="http://www.w3.org/2000/svg"><g><path d="m43 28v-2c-3.976 0-8 1.374-8 4h2c0-.705 2.278-2 6-2z"/><path d="m37.599 33.016c1.451.634 3.369.984 5.401.984 1.536 0 3.018-.2 4.286-.58l-.572-1.916c-2.488.742-6.208.599-8.313-.321z"/><path d="m49 30c0 .2-.217.473-.579.731l1.158 1.63c1.174-.835 1.421-1.745 1.421-2.361 0-1.894-2.306-3.413-5.874-3.868l-.253 1.984c2.657.339 4.127 1.329 4.127 1.884z"/><path d="m51 41h2v2h-2z"/><path d="m42 43h2v2h-2z"/><path d="m46 47h2v2h-2z"/><path d="m34 39h2v2h-2z"/><path d="m37 52h2v2h-2z"/><path d="m63 24v-5h-1c-3.808 0-6.91 3.058-6.992 6.847-2.425-2.32-6.842-3.847-12.008-3.847-7.255 0-13.047 3.004-13.885 7h-2.115v-2.341c2.009-.916 8-4.188 8-10.659 0-7.369-8.001-14.455-8.341-14.752l-.659-.577-.659.576c-.265.233-5.191 4.611-7.341 10.026-2.15-5.415-7.076-9.793-7.341-10.025l-.659-.577-.659.577c-.34.297-8.341 7.383-8.341 14.752 0 6.471 5.991 9.743 8 10.659v2.341h-8v2h28v6.546c0 .822-.068 1.645-.168 2.462-1.127.027-2.189.317-3.124.817-1.282-1.166-2.954-1.825-4.708-1.825-3.86 0-7 3.14-7 7 0 1.654 1.346 3 3 3h.719l-.637 2.546c-.054.221-.082.448-.082.673 0 1.533 1.248 2.781 2.781 2.781h.57c-.875 1.509-1.351 3.227-1.351 5v1.618l10.764-5.382c.479-.238 1.021-.278 1.527-.109.507.169.917.525 1.156 1.003l3.324 6.649 5.723-6.541c.76-.868 2.251-.868 3.011 0l5.723 6.541 3.059-6.117c.266-.532.75-.916 1.329-1.052.577-.137 1.183-.01 1.659.346l6.725 5.044v-2c0-2.815-.825-5.541-2.387-7.883-2.363-3.545-3.613-7.672-3.613-11.933v-9.264c3.387-.488 6-3.401 6-6.92zm-6 2c0-2.415 1.721-4.435 4-4.899v2.899c0 2.415-1.721 4.435-4 4.899zm-14-2c6.505 0 12 2.748 12 6s-5.495 6-12 6-12-2.748-12-6 5.495-6 12-6zm-12.024 29.028c.016.064.024.128.024.191 0 .431-.35.781-.781.781h-2.438c-.431 0-.781-.35-.781-.781 0-.063.008-.127.023-.189l.758-3.03h2.438zm-5.976-5.028c-.551 0-1-.449-1-1 0-2.757 2.243-5 5-5s5 2.243 5 5c0 .551-.449 1-1 1zm1-44.628c1.857 1.812 7 7.31 7 12.628 0 4.537-3.878 7.261-6 8.414v-2.112l3.832-5.748-1.664-1.109-2.168 3.252v-5.977l2.316-.772-.633-1.897-3.683 1.228v3.87l-2.219-2.774-1.562 1.249 3.781 4.726v6.064c-2.122-1.153-6-3.878-6-8.414 0-5.319 5.143-10.816 7-12.628zm-23 12.628c0-5.319 5.143-10.816 7-12.628 1.857 1.812 7 7.31 7 12.628 0 4.537-3.878 7.261-6 8.414v-2.112l3.832-5.748-1.664-1.109-2.168 3.252v-5.977l2.316-.772-.633-1.897-3.683 1.228v3.87l-2.219-2.774-1.562 1.249 3.781 4.726v6.064c-2.122-1.153-6-3.877-6-8.414zm8 10.659c1.502-.685 5.21-2.695 7-6.369 1.79 3.674 5.498 5.684 7 6.369v2.341h-14zm5 19.341c0-2.757 2.243-5 5-5 1.117 0 2.189.376 3.058 1.048-1.271 1.268-2.058 3.02-2.058 4.952h-5c-.551 0-1-.449-1-1zm3 6.219c0-.063.008-.127.023-.189l.758-3.03h2.438l.757 3.028c.016.064.024.128.024.191 0 .431-.35.781-.781.781h-2.438c-.431 0-.781-.35-.781-.781zm3.841 2.705c1.234-.284 2.159-1.386 2.159-2.705 0-.226-.028-.452-.083-.675l-.398-1.593c.157.026.316.049.481.049h.719l-.637 2.546c-.054.221-.082.448-.082.673 0 1.053.596 1.96 1.461 2.432l-5.276 2.638c.27-1.233.842-2.381 1.656-3.365zm36.108-1.697c.941 1.411 1.571 2.984 1.863 4.633l-3.336-2.502c-.951-.714-2.162-.965-3.319-.693-1.158.273-2.127 1.041-2.659 2.104l-1.726 3.453-3.762-4.299c-.76-.868-1.857-1.366-3.01-1.366s-2.25.498-3.01 1.366l-3.761 4.299-1.992-3.984c-.367-.733-.93-1.302-1.594-1.68.22-.401.357-.852.357-1.339 0-.226-.028-.452-.083-.675l-.636-2.544h.719c1.654 0 3-1.346 3-3 0-3.231-2.203-5.95-5.184-6.753.11-.896.184-1.799.184-2.701v-3.386c2.427 2.316 6.839 3.84 12 3.84s9.573-1.524 12-3.839v6.023c0 4.657 1.366 9.168 3.949 13.043z"/></g></svg>