<?xml version="1.0" encoding="iso-8859-1"?>
<!-- Generator: Adobe Illustrator 19.0.0, SVG Export Plug-In . SVG Version: 6.00 Build 0)  -->
<svg version="1.1" id="Capa_1" xmlns="http://www.w3.org/2000/svg" xmlns:xlink="http://www.w3.org/1999/xlink" x="0px" y="0px"
	 viewBox="0 0 512.005 512.005" style="enable-background:new 0 0 512.005 512.005;" xml:space="preserve">
<g>
	<g>
		<path d="M332.955,106.925c-0.747-0.171-1.515-0.256-2.283-0.256h-53.333c-5.888,0-10.667,4.779-10.667,10.667
			s4.779,10.667,10.667,10.667h51.925c2.965,0.896,12.075,4.203,12.075,10.667c0,6.485-9.173,9.771-12.075,10.667h-19.925
			c-5.888,0-10.667,4.779-10.667,10.667s4.779,10.667,10.667,10.667h21.333c0.768,0,1.536-0.085,2.283-0.256
			c11.051-2.411,29.717-11.797,29.717-31.744S343.984,109.336,332.955,106.925z"/>
	</g>
</g>
<g>
	<g>
		<path d="M268.955,21.592c-0.747-0.171-1.515-0.256-2.283-0.256h-53.333c-5.888,0-10.667,4.779-10.667,10.667
			s4.779,10.667,10.667,10.667h51.925c2.965,0.896,12.075,4.203,12.075,10.667c0,6.485-9.173,9.771-12.075,10.667h-19.925
			c-5.888,0-10.667,4.779-10.667,10.667s4.779,10.667,10.667,10.667h21.333c0.768,0,1.536-0.085,2.283-0.256
			c11.051-2.411,29.717-11.797,29.717-31.744C298.672,33.389,279.984,24.003,268.955,21.592z"/>
	</g>
</g>
<g>
	<g>
		<path d="M498.309,225.368c-35.712-34.261-135.061-34.155-162.304-33.536L213.424,22.104C203.44,8.259,187.269,0.003,170.203,0.003
			h-10.197c-3.029,0-5.931,1.301-7.936,3.541c-2.005,2.24-2.987,5.248-2.667,8.235l20.245,192.256l-69.781,8.725l-60.309-60.309
			c-2.005-1.984-4.715-3.115-7.552-3.115H10.672c-3.285,0-6.379,1.515-8.405,4.096c-2.027,2.581-2.752,5.973-1.941,9.152
			l21.013,84.053v18.709L0.325,349.421c-0.789,3.2-0.085,6.571,1.941,9.152c2.027,2.581,5.12,4.096,8.405,4.096h21.333
			c2.837,0,5.547-1.131,7.552-3.136l60.309-60.309l69.781,8.725l-20.245,192.256c-0.341,3.008,0.64,5.995,2.667,8.256
			s4.907,3.541,7.936,3.541h10.197c17.067,0,33.216-8.256,43.221-22.101l122.581-169.728c27.179,0.661,126.592,0.725,162.304-33.536
			c9.088-8.725,13.696-19.029,13.696-30.635C512.005,244.397,507.397,234.093,498.309,225.368z M483.568,271.213
			c-27.648,26.56-119.36,28.907-152.448,27.456c-3.413-0.235-6.997,1.515-9.088,4.416L196.144,477.4
			c-5.675,7.872-14.656,12.715-24.277,13.227l20.075-190.848c0.619-5.781-3.52-10.965-9.28-11.691l-85.333-10.667
			c-0.427-0.064-0.875-0.085-1.323-0.085c-2.816,0-5.525,1.109-7.531,3.115l-60.885,60.885h-3.243l18.005-72.085
			c0.213-0.832,0.32-1.707,0.32-2.581v-21.333c0-0.875-0.107-1.749-0.32-2.581l-18.005-72.085h3.243l60.843,60.864
			c2.325,2.325,5.547,3.392,8.875,3.051l85.333-10.667c5.76-0.704,9.899-5.909,9.28-11.691L171.845,21.379
			c9.621,0.512,18.603,5.355,24.277,13.227L322.032,208.92c2.091,2.923,5.397,4.779,9.088,4.416
			c32.917-1.387,124.715,0.853,152.427,27.435c4.864,4.651,7.125,9.493,7.125,15.232
			C490.672,261.741,488.411,266.584,483.568,271.213z"/>
	</g>
</g>
<g>
	<g>
		<path d="M332.955,341.592c-0.747-0.171-1.515-0.256-2.283-0.256h-21.333c-5.888,0-10.667,4.779-10.667,10.667
			c0,5.888,4.779,10.667,10.667,10.667h19.925c2.965,0.896,12.075,4.203,12.075,10.667c0,6.485-9.173,9.771-12.075,10.667h-51.925
			c-5.888,0-10.667,4.779-10.667,10.667s4.779,10.667,10.667,10.667h53.333c0.768,0,1.536-0.085,2.283-0.256
			c11.051-2.411,29.717-11.797,29.717-31.744S343.984,344.003,332.955,341.592z"/>
	</g>
</g>
<g>
	<g>
		<path d="M268.955,426.925c-0.747-0.171-1.515-0.256-2.283-0.256h-21.333c-5.888,0-10.667,4.779-10.667,10.667
			c0,5.888,4.779,10.667,10.667,10.667h19.925c2.965,0.896,12.075,4.203,12.075,10.667c0,6.485-9.173,9.771-12.075,10.667h-51.925
			c-5.888,0-10.667,4.779-10.667,10.667c0,5.888,4.779,10.667,10.667,10.667h53.333c0.768,0,1.536-0.085,2.283-0.256
			c11.051-2.411,29.717-11.797,29.717-31.744S279.984,429.336,268.955,426.925z"/>
	</g>
</g>
<g>
	<g>
		<path d="M418.587,224.323c-5.653-1.472-11.435,2.005-12.885,7.701c-1.451,5.675,1.984,11.477,7.659,12.971
			c0.128,0.043,13.312,3.819,13.312,11.008c0,7.189-13.184,10.965-13.248,10.987c-5.717,1.429-9.195,7.211-7.765,12.928
			c1.195,4.864,5.547,8.085,10.325,8.085c0.875,0,1.749-0.107,2.603-0.32c10.923-2.731,29.419-12.48,29.419-31.68
			S429.509,227.053,418.587,224.323z"/>
	</g>
</g>
<g>
</g>
<g>
</g>
<g>
</g>
<g>
</g>
<g>
</g>
<g>
</g>
<g>
</g>
<g>
</g>
<g>
</g>
<g>
</g>
<g>
</g>
<g>
</g>
<g>
</g>
<g>
</g>
<g>
</g>
</svg>
