<svg height="512" viewBox="0 0 60 42" width="512" xmlns="http://www.w3.org/2000/svg"><g id="Page-1" fill="none" fill-rule="evenodd"><g id="020---Train" fill="rgb(0,0,0)" fill-rule="nonzero"><path id="Shape" d="m3 42h54c1.6568542 0 3-1.3431458 3-3v-1c0-1.6568542-1.3431458-3-3-3h-7.261c.7054397-.8522743 1.1363385-1.8981452 1.236-3h1.013c2.9502683.0000725 5.6611195-1.6236346 7.0533765-4.2247312s1.2399161-5.7573493-.3963765-8.2122688l-10.667-16c-1.4815909-2.22832268-3.9810845-3.56611683-6.657-3.563h-38.321c-1.65685425 0-3 1.34314575-3 3v28c0 .5522847.44771525 1 1 1h26.025c.0996615 1.1018548.5305603 2.1477257 1.236 3h-25.261c-1.65685425 0-3 1.3431458-3 3v1c0 1.6568542 1.34314575 3 3 3zm42.5-7c-1.7350771-.004918-3.2036917-1.2823444-3.449-3h6.9c-.2454179 1.7184051-1.7151628 2.9960738-3.451 3zm-5.475-3c.0996615 1.1018548.5305603 2.1477257 1.236 3h-4.522c.7054397-.8522743 1.1363385-1.8981452 1.236-3zm13.841-16h-13.866c-.5522847 0-1-.4477153-1-1v-7c0-.55228475.4477153-1 1-1h7.866zm-51.866 7h3v1c0 1.6568542 1.34314575 3 3 3h7c1.6568542 0 3-1.3431458 3-3v-1h23c.5522847 0 1-.4477153 1-1s-.4477153-1-1-1h-23v-13c0-1.65685425-1.3431458-3-3-3h-7c-1.65685425 0-3 1.34314575-3 3v13h-3v-18c0-.55228475.44771525-1 1-1h38.321c2.0066347-.00218673 3.8809275 1.00104052 4.992 2.672l.219.328h-6.532c-1.6568542 0-3 1.34314575-3 3v7c0 1.6568542 1.3431458 3 3 3h15.2l1.781 2.672c.072.106.125.219.189.328h-11.17c-.5522847 0-1 .4477153-1 1s.4477153 1 1 1h11.912c.2895138 1.7419519-.2011755 3.5231201-1.3419141 4.8710556-1.1407385 1.3479355-2.816241 2.1264132-4.5820859 2.1289444h-49.988zm14 1c0 .5522847-.4477153 1-1 1h-7c-.55228475 0-1-.4477153-1-1v-16c0-.55228475.44771525-1 1-1h7c.5522847 0 1 .44771525 1 1zm13.051 8h6.9c-.2387865 1.7223098-1.7112159 3.0046811-3.45 3.0046811s-3.2112135-1.2823713-3.45-3.0046811zm-27.051 6c0-.5522847.44771525-1 1-1h54c.5522847 0 1 .4477153 1 1v1c0 .5522847-.4477153 1-1 1h-54c-.55228475 0-1-.4477153-1-1z"/><path id="Shape" d="m31 5h-7c-1.6568542 0-3 1.34314575-3 3v7c0 1.6568542 1.3431458 3 3 3h7c1.6568542 0 3-1.3431458 3-3v-7c0-1.65685425-1.3431458-3-3-3zm1 10c0 .5522847-.4477153 1-1 1h-7c-.5522847 0-1-.4477153-1-1v-7c0-.55228475.4477153-1 1-1h7c.5522847 0 1 .44771525 1 1z"/><path id="Shape" d="m13 9h-3c-.55228475 0-1 .44771525-1 1 0 .5522847.44771525 1 1 1h3c.5522847 0 1-.4477153 1-1 0-.55228475-.4477153-1-1-1z"/><path id="Shape" d="m13 13h-3c-.55228475 0-1 .4477153-1 1s.44771525 1 1 1h3c.5522847 0 1-.4477153 1-1s-.4477153-1-1-1z"/></g></g></svg>