<svg fill="#088b1b" height="512pt" viewBox="0 0 512 512" width="512pt" xmlns="http://www.w3.org/2000/svg"><path d="m70 352c5.519531 0 10-4.480469 10-10s-4.480469-10-10-10-10 4.480469-10 10 4.480469 10 10 10zm0 0"/><path d="m482 0c-20.957031 0-422.054688 0-452 0-16.542969 0-30 13.457031-30 30v452c0 16.542969 13.457031 30 30 30h452c16.542969 0 30-13.457031 30-30v-452c0-16.542969-13.457031-30-30-30zm-56 492h-133.394531l84.792969-93.273438c1.609374-1.765624 2.601562-4.195312 2.601562-6.726562v-372h46zm-146-15.867188v-74.132812h67.394531zm-260 5.867188v-452c0-5.515625 4.484375-10 10-10h330v362h-90c-5.523438 0-10 4.476562-10 10v100c-8.867188 0-217.230469 0-230 0-5.515625 0-10-4.484375-10-10zm472 0c0 5.515625-4.484375 10-10 10h-36v-472h36c5.515625 0 10 4.484375 10 10zm0 0"/><path d="m84.738281 213.679688 20 34.640624c1.328125 2.296876 3.511719 3.972657 6.074219 4.660157 2.5625.683593 5.289062.324219 7.585938-1l22.578124-13.035157c5.738282 4.421876 12.160157 8.089844 19.023438 10.863282v26.191406c0 5.523438 4.476562 10 10 10h40c5.523438 0 10-4.476562 10-10v-26.175781c6.910156-2.769531 13.277344-6.40625 19.035156-10.871094l22.566406 13.027344c2.292969 1.324219 5.023438 1.683593 7.585938 1 2.5625-.6875 4.746094-2.363281 6.074219-4.660157l20-34.640624c2.761719-4.78125 1.121093-10.898438-3.660157-13.660157l-22.472656-12.976562c.585938-3.8125.871094-7.464844.871094-11.042969s-.285156-7.230469-.871094-11.042969l22.472656-12.976562c4.78125-2.761719 6.421876-8.878907 3.660157-13.660157l-20-34.640624c-1.328125-2.296876-3.511719-3.972657-6.074219-4.660157-2.558594-.683593-5.289062-.324219-7.585938 1l-22.5625 13.027344c-5.761718-4.464844-12.128906-8.101563-19.039062-10.875v-26.171875c0-5.523438-4.476562-10-10-10h-40c-5.523438 0-10 4.476562-10 10v26.1875c-6.859375 2.773438-13.28125 6.441406-19.023438 10.867188l-22.578124-13.035157c-2.292969-1.324219-5.023438-1.683593-7.585938-1-2.5625.6875-4.746094 2.363281-6.074219 4.660157l-20 34.640624c-2.757812 4.78125-1.121093 10.898438 3.660157 13.660157l22.46875 12.972656c-1.167969 7.542969-1.164063 14.539063 0 22.09375l-22.46875 12.972656c-4.78125 2.761719-6.417969 8.878907-3.660157 13.660157zm42.324219-12.890626c3.828125-2.210937 5.75-6.671874 4.726562-10.972656-2.398437-10.082031-2.398437-17.570312 0-27.625 1.023438-4.304687-.898437-8.769531-4.726562-10.980468l-20.003906-11.550782 10-17.316406 20.019531 11.558594c3.828125 2.207031 8.648437 1.644531 11.863281-1.386719 6.6875-6.304687 14.742188-10.910156 23.941406-13.679687 4.226563-1.269532 7.117188-5.160157 7.117188-9.574219v-23.261719h20v23.261719c0 4.410156 2.890625 8.300781 7.117188 9.574219 9.207031 2.769531 17.261718 7.375 23.9375 13.675781 3.214843 3.035156 8.039062 3.597656 11.867187 1.390625l20.019531-11.5625 10 17.320312-20 11.550782c-3.832031 2.210937-5.753906 6.675781-4.726562 10.976562 1.199218 5.046875 1.785156 9.566406 1.785156 13.8125s-.585938 8.765625-1.785156 13.8125c-1.027344 4.300781.894531 8.765625 4.726562 10.976562l20 11.550782-10 17.320312-20.019531-11.558594c-3.828125-2.210937-8.652344-1.648437-11.867187 1.386719-6.675782 6.300781-14.730469 10.90625-23.9375 13.675781-4.226563 1.273438-7.117188 5.164063-7.117188 9.578126v23.257812h-20v-23.261719c0-4.410156-2.890625-8.296875-7.109375-9.574219-9.214844-2.777343-17.273437-7.382812-23.949219-13.679687-3.210937-3.03125-8.035156-3.59375-11.863281-1.386719l-20.019531 11.5625-10-17.320312zm0 0"/><path d="m190 216c22.054688 0 40-17.945312 40-40s-17.945312-40-40-40-40 17.945312-40 40 17.945312 40 40 40zm0-60c11.027344 0 20 8.972656 20 20s-8.972656 20-20 20-20-8.972656-20-20 8.972656-20 20-20zm0 0"/><path d="m100 342c0 5.523438 4.476562 10 10 10h200c5.523438 0 10-4.476562 10-10s-4.476562-10-10-10h-200c-5.523438 0-10 4.476562-10 10zm0 0"/><path d="m230 382h-160c-5.523438 0-10 4.476562-10 10s4.476562 10 10 10h160c5.523438 0 10-4.476562 10-10s-4.476562-10-10-10zm0 0"/><path d="m230 432h-160c-5.523438 0-10 4.476562-10 10s4.476562 10 10 10h160c5.523438 0 10-4.476562 10-10s-4.476562-10-10-10zm0 0"/></svg>