<svg id="Capa_1" enable-background="new 0 0 495.92 495.92" height="512" viewBox="0 0 495.92 495.92" width="512" xmlns="http://www.w3.org/2000/svg"><g><path d="m329.751 452.209-27.858-32.273v-116.503h-106.866v116.503l-27.858 32.273-19.14 18.567h199.849z" fill="#d7d0d6"/><path d="m347.878 470.776-18.127-18.567-12.461-14.436h-87.509c-4.741 0-7.29-5.568-4.192-9.157l1.708-1.979c3.734-4.326 5.776-9.852 5.785-15.567.007-4.519 3.672-8.18 8.193-8.18h60.619v-52.486h-68.812v-46.972h-38.054v116.503l-27.858 32.272-19.14 18.567h38.054l12.263-11.895v11.895h149.531z" fill="#baafb9"/><g><g id="XMLID_284_"><g><path d="m447.4 44.021h-398.88c-26.8 0-48.52 21.73-48.52 48.53v241.82l44.132 21.006h415.599l36.189-21.006v-241.82c0-26.8-21.72-48.53-48.52-48.53z" fill="#c8effe"/><path d="m72.875 348.929v-271.758c0-12.473 4.196-23.962 11.24-33.15h-35.595c-26.8 0-48.52 21.73-48.52 48.53v241.82l44.132 21.006h29.135c-.249-2.116-.392-4.265-.392-6.448z" fill="#99e6fc"/><path d="m1 334.371h493.92 1c0 26.79-21.72 48.52-48.52 48.52h-398.88c-26.8 0-48.52-21.73-48.52-48.52z" fill="#d7d0d6"/></g></g><path d="m72.875 348.929v-14.558h-71.875-1c0 26.79 21.72 48.52 48.52 48.52h36.24c-7.432-9.319-11.885-21.119-11.885-33.962z" fill="#baafb9"/><path d="m342.668 452.773h-189.416c-7.843 0-14.201 6.358-14.201 14.201v7.604c0 7.843 6.358 14.201 14.201 14.201h189.415c7.843 0 14.201-6.358 14.201-14.201v-7.604c.001-7.843-6.357-14.201-14.2-14.201z" fill="#d7d0d6"/><g id="XMLID_158_"><g><path d="m248.46 7.141c-23.22 0-44.8 6.97-62.78 18.93l-14.437 51.331 111.465 97.94 79.292-54.661c0-62.71-50.83-113.54-113.54-113.54z" fill="#bbec6c"/><path d="m248.46 120.681h113.54c0 62.71-50.83 113.54-113.54 113.54s-113.54-50.83-113.54-113.54c0-39.5 20.16-74.28 50.76-94.61z" fill="#fee45a"/></g></g><g><g><path d="m86.022 281.257c-2.211 0-4.401-.974-5.882-2.841-2.573-3.246-2.028-7.963 1.218-10.537l139.143-110.324c2.92-2.316 7.103-2.135 9.812.427l108.956 103.019 88.585-82.756c3.03-2.828 7.775-2.665 10.601.36 2.828 3.027 2.666 7.773-.36 10.601l-93.736 87.568c-2.896 2.704-7.395 2.691-10.272-.031l-109.358-103.397-134.052 106.287c-1.378 1.093-3.023 1.624-4.655 1.624z" fill="#f9f7f8"/></g></g><g fill="#f37c7c"><circle cx="225.161" cy="163.432" r="20.294"/><circle cx="88.769" cy="271.294" r="20.294"/><circle cx="339.237" cy="271.294" r="20.294"/><circle cx="432.974" cy="183.726" r="20.294"/></g></g></g></svg>