<svg height="512pt" viewBox="0 0 512.00226 512" width="512pt" xmlns="http://www.w3.org/2000/svg"><path d="m256 232.726562c12.855469 0 23.273438 10.421876 23.273438 23.273438v232.726562c0 12.851563-10.417969 23.273438-23.273438 23.273438-12.851562 0-23.269531-10.421875-23.269531-23.273438v-232.726562c0-12.851562 10.417969-23.273438 23.269531-23.273438zm0 0" fill="#8ccd5b"/><path d="m256 206.3125c0-113.941406 92.371094-206.3125 206.3125-206.3125h3.972656c25.246094 0 45.714844 20.46875 45.714844 45.71875v3.972656c0 113.941406-92.367188 206.308594-206.308594 206.308594h-3.972656c-25.25 0-45.71875-20.46875-45.71875-45.714844zm0 0" fill="#378900"/><path d="m477.09375 139.636719h-69.820312c-6.425782 0-11.636719-5.210938-11.636719-11.636719s5.210937-11.636719 11.636719-11.636719h69.820312c6.425781 0 11.632812 5.210938 11.632812 11.636719s-5.207031 11.636719-11.632812 11.636719zm0 0" fill="#216600"/><path d="m430.546875 186.183594h-69.816406c-6.429688 0-11.636719-5.210938-11.636719-11.636719s5.207031-11.636719 11.636719-11.636719h69.816406c6.425781 0 11.636719 5.210938 11.636719 11.636719s-5.210938 11.636719-11.636719 11.636719zm0 0" fill="#216600"/><path d="m284.09375 227.90625 158.089844-158.085938 18.453125-18.453124c6.425781-6.425782 16.84375-6.425782 23.273437 0 6.425782 6.425781 6.425782 16.84375 0 23.273437l-18.453125 18.453125-158.089843 158.085938c-6.425782 6.425781-16.847657 6.425781-23.273438 0-6.253906-6.394532-6.117188-16.746094 0-23.273438zm0 0" fill="#216600"/><path d="m346.066406 68.832031c-2.929687-.003906-5.75 1.101563-7.894531 3.089844l-.003906.007813-.125.113281-.011719.007812c-6.171875 5.722657-11.949219 11.855469-17.285156 18.363281l-.011719.007813c-.035156.046875-.070313.089844-.105469.132813l-.003906.003906c-.074219.09375-.148438.183594-.222656.273437l-.015625.019531c-.03125.035157-.0625.074219-.09375.113282l-.019531.023437c-.070313.089844-.140626.175781-.214844.265625l-.019532.027344c-.03125.035156-.058593.070312-.085937.105469l-.023437.027343c-.070313.089844-.140626.175782-.214844.261719l-.023438.03125c-.027344.03125-.050781.066407-.078125.097657l-.03125.039062-.085937.105469-.019532.027343c-.03125.039063-.066406.078126-.097656.121094l-.039062.046875c-.019532.027344-.042969.054688-.066406.082031l-.035157.046876c-.023437.03125-.050781.0625-.074219.089843l-.03125.039063c-.03125.042968-.0625.082031-.09375.121094-.015624.019531-.027343.035156-.042968.050781-.015625.023437-.039063.050781-.054688.074219l-.050781.0625c-.015625.019531-.035156.042968-.050781.066406-.019532.019531-.039063.046875-.058594.070312-.027344.035156-.054688.066406-.078125.101563l-.054687.066406-.042969.054687-.058594.074219-.035156.042969-.210938.265625-.03125.042969-.0625.082031-.03125.039063c-.074219.09375-.148437.1875-.222656.28125l-.019531.023437c-.019532.027344-.046875.066406-.070313.09375l-.019531.023437c-.082031.105469-.15625.203126-.238281.308594l-.003907.003906c-.027343.035157-.050781.066407-.078124.101563l-.011719.011719c-.105469.140625-.21875.289062-.328125.429687-3.140625 4.078125-6.105469 8.289063-8.898438 12.625-3.460937 5.417969-1.878906 12.613281 3.539063 16.074219 5.40625 3.453125 12.589843 1.878906 16.054687-3.519531 7.355469-11.410157 16.121094-21.847657 26.089844-31.058594 4.71875-4.363281 5.007812-11.726563.644531-16.445313-2.203125-2.382812-5.300781-3.738281-8.546875-3.738281zm119.390625-45.558593h-3.320312c-.03125 0-.070313 0-.101563 0h-.34375l-.082031.003906h-.484375l-.09375.003906h-.046875c-.042969 0-.078125 0-.121094 0h-.199219l-.105468.003906h-.195313l-.089843.003906h-.277344l-.066406.003907h-.226563l-.054687.003906h-.140626l-.113281.003906h-.027343c-.050782 0-.09375 0-.144532 0l-.027344.003907c-.039062 0-.078124 0-.113281 0h-.046875l-.09375.003906h-.136718l-.066407.003906h-.136719l-.085937.003906h-.144531l-.050782.003906h-.144531l-.109375.003907h-.027344l-.140624.003906h-.003907c-.046875 0-.09375.003906-.140625.003906h-.039062l-.101563.003907h-.058593l-.082032.003906h-.058594l-.082031.003906h-.0625l-.082031.003906h-.058594l-.078125.003906h-.0625l-.085937.003907h-.054688l-.082031.003906h-.0625l-.085937.003906h-.054688l-.09375.003907h-.046875l-.136719.003906-.042968.003906-.101563.003906h-.050781l-.085938.003906h-.054687l-.089844.003907-.054687.003906h-.085938l-.058594.003906-.078125.003907h-.066406l-.074219.003906h-.0625l-.078125.003906-.066406.003906h-.082031l-.054688.003906-.097656.003907h-.042969c-.050781.003906-.09375.007812-.140625.007812h-.011718l-.128907.003907-.050781.003906-.089844.003906-.054687.003906-.082031.003906h-.0625l-.078126.003907-.066406.003906-.070312.003906h-.066406l-.078126.003907-.0625.003906-.085937.003906h-.050781l-.097656.007812h-.042969c-.03125.003907-.066407.003907-.097657.003907l-.046874.003906-.136719.007813h-.046875l-.089844.003906-.066406.003906-.148438.007812-.0625.003907-.078125.003906-.0625.003906-.140625.007813-.074218.003906h-.0625l-.074219.007812h-.0625l-.078125.003907-.0625.003906-.074219.003906-.140625.007813-.0625.003906c-.046875.003906-.097656.007812-.144531.007812l-.066407.003907-.210937.011719-.066406.007812-.210938.011719-.066406.003906-.074219.003906-.140625.007813-.066406.003906-.070313.003906-.066406.003906-.074218.003907-.066407.003906-.070312.003906-.082031.007813c-.042969 0-.082032.003906-.125.007812l-.066407.003906-.140625.007813-.066406.003906-.140625.007813-.070313.007812-.066406.003906-.074218.003907-.066407.003906-.074219.007813-.0625.003906-.078124.003906-.0625.003906-.082032.007813-.054687.003906-.09375.003906-.046875.003907c-.046875.003906-.082032.007812-.128906.011718h-.035157c-.03125.003906-.078125.007813-.109375.007813l-.0625.003906-.082031.007813-.058594.003906-.078125.003906-.0625.007812-.078125.003907-.0625.003906-.070312.007813-.070313.003906-.074218.007812-.0625.003906-.082032.003907-.054687.007812-.089844.003907-.050781.003906-.140625.011718-.125.011719h-.011719l-.140625.011719-.039063.003906c-.03125 0-.066406.003906-.097656.007813l-.058594.003906-.082031.007813-.0625.003906-.074219.007812-.0625.003906-.078124.007813-.0625.003906-.074219.007813-.066407.003906-.074218.007812-.066406.003907-.074219.007812-.058594.003907-.089844.007812-.050781.003906-.101562.011719h-.039063l-.132813.011719-.0625.007812-.078124.007813-.0625.003906-.074219.007813-.0625.003906-.078125.007812-.0625.007813-.074219.007812-.0625.003907-.082031.007812-.054688.003906-.082031.007813-.058594.007812-.082031.007813-.058594.003906-.078125.007812-.058593.003907-.078126.007812-.109374.011719-.085938.007812-.058594.007813-.078125.003906-.0625.007813-.074219.007812-.070312.007813-.066406.007812-.070313.007813-.066406.003906-.074219.007812-.066406.007813-.070312.007813-.0625.007812-.074219.003906-.066407.007813-.070312.007812-.078125.007813-.058594.007812c-.027343 0-.074219.003906-.101562.007813l-.035157.003906c-.046874.003906-.089843.011719-.136718.015625l-.046875.003906-.089844.011719-.0625.003906-.074219.007813-.066406.007812-.074219.007813-.0625.007812-.210937.023438-.0625.003906-.078125.011719-.0625.003906-.078125.011719-.058594.003906-.082031.011719-.054688.003906-.105469.011719-.03125.003906-.136718.015625-.046875.003906-.089844.011719-.058594.007813-.078125.007812-.0625.007812-.078125.007813-.058593.007813-.078126.007812-.0625.007812-.074218.007813-.0625.007813-.074219.007812-.0625.007812-.082031.011719-.054688.003907-.085937.011718-.054688.003906-.097656.015626-.035156.003906-.136719.015625-.039062.003906c-.035157.003906-.066407.007813-.101563.011719l-.046875.007812c-.03125.003906-.058594.003906-.089844.007813l-.136718.019531-.058594.007812-.078125.007813-.058594.007813-.082031.011718-.054688.003906-.082031.011719-.058594.007813-.082031.011718-.054688.003907-.085937.011719-.050781.007812-.097656.011719-.039063.003906-.136719.019531-.046875.003906-.089843.011719-.136719.019531-.058594.007813-.078125.011719-.058594.003906-.078125.011719-.0625.007812-.078125.011719-.136718.019531-.058594.007813-.082032.007812-.054687.007813-.085937.011719-.152344.023437-.035156.003906c-.046876.007813-.089844.011719-.136719.019531h-.015625l-.125.019532-.027344.003906-.105469.015625-.046875.003906-.09375.011719-.046875.007812-.085937.011719-.058594.007813-.082031.011718-.050781.007813-.085938.011719-.054688.007812-.085937.011719-.050781.007813-.085938.011718-.152344.023438-.035156.003906c-.09375.015625-.179687.027344-.273437.039062l-.042969.007813c-.03125.003906-.0625.007813-.089844.011719l-.058594.007812-.082031.015625-.050781.003907-.085938.015624-.050781.007813-.089843.011719-.046876.007812-.089843.011719-.050781.007813-.089844.015624-.042969.003907-.140625.023437-.101562.015625-.035157.003907c-.039062.007812-.078125.011718-.121093.019531l-.023438.003906-.128906.019531-.035156.007813-.097657.011719-.050781.007812-.089844.015625-.046875.007813-.089843.011718-.140626.023438-.042968.007812-.089844.015625-.046875.003907-.09375.015624-.042969.007813-.097656.015625-.039062.007812-.136719.019532-.277344.046875h-.007813l-.128906.019531-.027344.003906-.109374.019532-.039063.007812-.097656.015625-.039063.003906-.097656.015625-.042969.007813-.140625.023437-.089844.015625-.042968.007813-.105469.015625-.03125.007812-.125.019531h-.007813c-.144531.027344-.277343.050782-.417968.074219l-.023438.003907-.113281.019531-.035156.003906-.101563.019531-.039062.003906c-.03125.007813-.0625.011719-.097656.019532l-.039063.003906-.136719.027344-.101562.015625-.035156.007812-.105469.015625-.03125.007813c-.042969.007812-.074219.011719-.117188.019531l-.019531.003906c-.140625.023438-.269531.046875-.410156.074219l-.035156.003906-.101563.019531-.039063.007813-.097656.015625-.042968.007812-.09375.019532-.042969.003906-.09375.019531-.140625.023438-.035156.007812c-.039063.007813-.074219.015625-.109376.019531l-.027343.007813-.121094.019531-.015625.003906c-.140625.027344-.273438.050782-.414062.078126h-.015626l-.121093.023437-.027344.003906-.109375.023438-.027344.003906-.109375.023437-.03125.003907c-.035156.007812-.070312.011719-.105469.019531l-.03125.007812-.109374.019532-.027344.003906-.109375.023438-.027344.003906-.128906.023437-.003907.003907c-.140624.027343-.277343.050781-.417968.078124l-.011719.003907-.125.023437-.023437.003906-.113282.023438-.023437.003906c-.035157.007813-.078125.015625-.113281.023438l-.027344.003906-.105469.023438-.035156.003906-.105469.023437-.027344.003907-.113281.023437-.023437.003906-.128907.027344h-.007812c-.136719.027344-.277344.058594-.414063.085937h-.003906c-.046875.007813-.085938.019532-.132812.027344l-.015626.003906-.117187.023438-.03125.007812-.105469.019532-.03125.007812c-.035156.007813-.070312.011719-.105468.019532l-.03125.007812c-.035157.007812-.074219.015625-.109376.023438l-.023437.003906c-.035156.007812-.082031.019531-.117187.023437l-.019532.003907c-.230468.050781-.457031.097656-.6875.144531l-.007812.003906-.128906.027344-.019532.003906-.113281.023437-.027344.007813-.109375.023437-.027344.003907-.113281.027343-.15625.03125c-.234375.050782-.457031.101563-.6875.152344h-.003906l-.132813.027344-.011718.003906c-.046875.011719-.082032.019532-.125.027344l-.011719.003906-.125.027344-.015625.003906-.125.027344-.011719.003906-.125.027344-.011719.003906c-.277343.058594-.546874.121094-.824218.183594l-.011719.003906-.125.03125h-.007813l-.125.03125-.019531.003906-.121093.027344-.011719.003906c-.367188.082032-.730469.167969-1.097657.257813h-.003906l-.132812.03125h-.003906c-7.664063 1.839844-15.199219 4.171875-22.558594 6.988281-6 2.300782-9 9.027344-6.703125 15.03125 2.300781 6 9.03125 9 15.03125 6.699219 18.164062-6.945313 37.453125-10.496094 56.898437-10.464844h3.136719c.152344-.007812.308594.007813.453125.054688 5.933594 2.464843 12.746094-.347657 15.207031-6.285157 2.460938-5.925781-.339843-12.726562-6.265625-15.199218-.234375-.097656-.472656-.191406-.714844-.285156h-.003906l-.0625-.023438v-.003906l-.066406-.023438h-.003906l-.0625-.023437h-.003906l-.0625-.023438-.003907-.003906-.0625-.019531-.003906-.003906-.0625-.023438h-.007813l-.058593-.023438h-.011719l-.054688-.023437-.070312-.023437-.007812-.003907-.128907-.042969-.007812-.003906-.070313-.023437-.054687-.015625-.070313-.023438-.007812-.003906-.070313-.023438-.054687-.015624-.015625-.007813-.050781-.015625-.015626-.003906-.050781-.019532-.015625-.003906-.054687-.015625-.011719-.003906-.054688-.015625-.015624-.003906-.050782-.019532-.015625-.003906-.054687-.015625-.015625-.003906-.050781-.015625-.019532-.007812-.046875-.015626-.023437-.003906-.046875-.015625-.023438-.003906-.046875-.015625-.023437-.003906-.070313-.023438-.046875-.011718-.023437-.007813-.046875-.011719-.023438-.007812-.046875-.011719-.023437-.007813-.046875-.011718-.019532-.007813-.050781-.011719-.023437-.007812-.046875-.011719-.023438-.003906-.046875-.015625-.023437-.003906-.046875-.011719-.023438-.007813-.046875-.011718-.023437-.007813-.042969-.007812-.027344-.007813-.042969-.011718-.027343-.007813-.042969-.007813-.027344-.007812-.039062-.011719-.03125-.007812-.039063-.007813-.03125-.007812-.039062-.007813-.03125-.007812-.042969-.011719-.03125-.003906-.039062-.011719-.03125-.007813-.039063-.007812-.027344-.007812-.042969-.007813-.03125-.007813-.042968-.007812-.027344-.007812-.042969-.007813-.03125-.007813-.039062-.007812-.027344-.007812-.042969-.007813-.027344-.007813-.070312-.011718-.050781-.011719-.023438-.003906-.046875-.011719-.023437-.003906-.050781-.011719-.070313-.011719-.023437-.007812-.050782-.007813-.023437-.003906-.050781-.011719-.09375-.015625-.050782-.011719-.023437-.003906-.050781-.007812-.070313-.011719-.027344-.003906-.046875-.011719-.023437-.003906-.050781-.007813-.019532-.003906-.050781-.007813-.027344-.003906-.140625-.023437-.050781-.007813-.070313-.011718-.027343-.003907-.050781-.007812-.015626-.003907-.050781-.015624h-.019531l-.054688-.007813-.015624-.003906-.054688-.007813-.019531-.003906-.054688-.007812h-.019531l-.054688-.011719h-.019531l-.054687-.007813-.019532-.003906-.054687-.007812h-.019531l-.054688-.007813-.019531-.003906-.058594-.003907-.015625-.003906-.058594-.007812h-.015624l-.054688-.007813-.019531-.003906-.058594-.007813h-.015625l-.058594-.007812h-.015625l-.058593-.007812-.015626-.003907-.058593-.003906-.019531-.003906-.058594-.003907-.011719-.003906-.0625-.003906-.011719-.003906-.0625-.003906h-.011718l-.0625-.007813h-.015626l-.0625-.007813h-.011718l-.0625-.007812h-.011719l-.0625-.003906-.011719-.003906-.066406-.003907h-.011719l-.0625-.007812h-.007812l-.066407-.003907-.007812-.003906-.066406-.003906h-.007813l-.066406-.003906h-.011719l-.0625-.007813h-.011718l-.066407-.003906h-.011719l-.0625-.003906h-.011718l-.066406-.003907-.007813-.003906-.066406-.003906h-.011719l-.066406-.003906h-.007813l-.066406-.003906h-.011719l-.066406-.003907h-.007812l-.066407-.003906h-.011719l-.066406-.003906h-.078125l-.007812-.003907h-.078125l-.066406-.003906h-.007813l-.070313-.003906h-.085937l-.066406-.003906h-.085938l-.066406-.003906h-.238281l-.074219-.003907h-.15625v.003907zm0 0" fill="#9fe27c"/><path d="m492.320312 12.09375c-6.429687.003906-11.636718 5.214844-11.632812 11.640625.003906 2.75.976562 5.410156 2.75 7.507813 3.441406 4.039062 5.316406 9.171874 5.292969 14.476562v3.972656c0 100.925782-82.113281 183.035156-183.039063 183.035156h-3.972656c-1.359375.003907-2.714844-.117187-4.050781-.359374-6.324219-1.140626-12.375 3.058593-13.519531 9.382812-1.140626 6.320312 3.054687 12.371094 9.375 13.515625 1.828124.332031 3.671874.550781 5.523437.65625h.003906l.058594.003906h.007813l.058593.003907h.007813l.058594.003906h.003906c.101562.007812.207031.011718.308594.015625h.015624l.046876.003906h.023437l.042969.003906h.023437l.042969.003907h.09375l.042969.003906h.023437c.050782.003906.101563.003906.152344.007812h.097656l.035156.003906h.101563l.039063.003907h.101562l.035156.003906h.136719l.027344.003906h.109375l.035156.003907h.136719l.039062.003906h.175781l.066407.003906h.28125l.027343.003906h4.183594c113.941406 0 206.3125-92.371094 206.3125-206.3125v-4.140625l-.003906-.042969v-.390624l-.003906-.058594v-.167969l-.003906-.042969v-.101562l-.003907-.039063v-.148437l-.003906-.023438v-.066406l-.003906-.023438v-.148437l-.003907-.039063v-.070312l-.003906-.03125v-.070312l-.003906-.042969v-.09375c-.003906-.023438-.003906-.046875-.003906-.070313v-.015625l-.003906-.054687v-.023438l-.003907-.046875v-.070312l-.003906-.027344v-.042969l-.003906-.027344v-.070312l-.003907-.042969v-.027343l-.003906-.039063v-.03125l-.003906-.066406v-.027344l-.003906-.039063v-.035156l-.003906-.035156-.003907-.03125v-.039062l-.003906-.03125v-.035157l-.003906-.035156v-.035156l-.003907-.035157v-.035156l-.003906-.03125-.003906-.039062v-.03125l-.003906-.050782-.003906-.042968v-.042969l-.003907-.027344-.003906-.042969v-.03125l-.003906-.035156v-.03125l-.003907-.039062-.003906-.03125v-.035156l-.007812-.070313v-.035156l-.003906-.027344-.003907-.042969v-.003906l-.007812-.097656v-.03125l-.003907-.035156-.003906-.03125v-.035157l-.007812-.070312-.003906-.03125v-.039063l-.003907-.03125-.003906-.035156-.003906-.03125v-.039062l-.003907-.027344-.003906-.039063v-.027343l-.011718-.105469-.003907-.039063v-.03125l-.003906-.039062-.003906-.023438-.003907-.042968-.003906-.027344-.003906-.042969v-.019531l-.003906-.046875-.003906-.019531-.003907-.046876v-.019531l-.007812-.050781v-.003906c-.007813-.058594-.011719-.113282-.019531-.171875v-.019531l-.003907-.042969-.003906-.023438-.003906-.042969-.003907-.023437-.003906-.042969-.003906-.027344-.003906-.039062-.003906-.023438-.003907-.042968v-.023438l-.007812-.046875v-.003906c-.003907-.058594-.011719-.117187-.019531-.171875v-.019531l-.007813-.046875v-.019532l-.007813-.042968-.003906-.023438-.003906-.046875-.003906-.019531-.003906-.046875-.003907-.019531-.003906-.046875-.003906-.011719c-.011719-.082031-.019531-.160156-.03125-.242188v-.003906c-.003907-.015625-.003907-.035156-.007813-.050781v-.015625l-.007812-.050781-.003906-.015625-.003907-.046875-.011719-.070313v-.015625l-.007812-.050781v-.007812c-.019531-.125-.035156-.246094-.054688-.371094v-.003906l-.007812-.058594v-.007813l-.011719-.058593v-.003907c-.023437-.144531-.042969-.292969-.066406-.4375l-.011719-.0625v-.003906l-.011718-.058594v-.003906c-1.332032-8.148437-4.855469-15.78125-10.191407-22.082031-2.210937-2.621094-5.464843-4.128906-8.890625-4.125zm0 0" fill="#216600"/><g fill="#6ec030"><path d="m237.550781 251.179688 223.085938-223.085938c6.425781-6.425781 16.84375-6.425781 23.273437 0 6.425782 6.425781 6.425782 16.847656 0 23.273438l-18.453125 18.453124-204.636719 204.632813c-6.425781 6.425781-16.84375 6.425781-23.273437 0-6.136719-6.375-5.910156-16.679687.003906-23.273437zm0 0"/><path d="m430.546875 93.09375c-6.425781 0-11.636719-5.210938-11.636719-11.636719v-46.546875c0-6.425781 5.210938-11.636718 11.636719-11.636718s11.636719 5.210937 11.636719 11.636718v46.546875c0 6.425781-5.210938 11.636719-11.636719 11.636719zm0 0"/><path d="m314.183594 209.453125c-6.425782 0-11.636719-5.207031-11.636719-11.632813v-69.820312c0-6.425781 5.210937-11.636719 11.636719-11.636719 6.425781 0 11.636718 5.210938 11.636718 11.636719v69.820312c0 6.425782-5.210937 11.632813-11.636718 11.632813zm0 0"/><path d="m384 139.636719c-6.425781 0-11.632812-5.210938-11.632812-11.636719v-69.816406c0-6.425782 5.207031-11.636719 11.632812-11.636719 6.429688 0 11.636719 5.210937 11.636719 11.636719v69.816406c0 6.425781-5.207031 11.636719-11.636719 11.636719zm0 0"/><path d="m477.09375 116.363281h-69.820312c-6.425782 0-11.636719-5.207031-11.636719-11.636719 0-6.425781 5.210937-11.632812 11.636719-11.632812h69.820312c6.425781 0 11.632812 5.207031 11.632812 11.632812 0 6.429688-5.207031 11.636719-11.632812 11.636719zm0 0"/><path d="m430.546875 162.910156h-69.816406c-6.429688 0-11.636719-5.210937-11.636719-11.636718 0-6.425782 5.207031-11.636719 11.636719-11.636719h69.816406c6.425781 0 11.636719 5.210937 11.636719 11.636719 0 6.425781-5.210938 11.636718-11.636719 11.636718zm0 0"/><path d="m256 206.3125c0-113.941406-92.367188-206.3125-206.308594-206.3125h-3.972656c-25.246094 0-45.71484375 20.46875-45.71484375 45.71875v3.972656c0 113.941406 92.36718775 206.308594 206.30859375 206.308594h3.972656c25.25 0 45.714844-20.46875 45.714844-45.714844zm0 0"/></g><path d="m34.910156 116.363281h69.820313c6.425781 0 11.636719 5.210938 11.636719 11.636719s-5.210938 11.636719-11.636719 11.636719h-69.820313c-6.425781 0-11.632812-5.210938-11.632812-11.636719s5.207031-11.636719 11.632812-11.636719zm0 0" fill="#4da900"/><path d="m81.457031 162.910156h69.816407c6.429687 0 11.636718 5.210938 11.636718 11.636719s-5.210937 11.636719-11.636718 11.636719h-69.816407c-6.425781 0-11.636719-5.210938-11.636719-11.636719s5.210938-11.636719 11.636719-11.636719zm0 0" fill="#4da900"/><path d="m227.910156 227.90625-158.089844-158.085938-18.453124-18.453124c-6.425782-6.425782-16.84375-6.425782-23.273438 0-6.425781 6.425781-6.425781 16.84375 0 23.273437l18.453125 18.453125 158.089844 158.085938c6.425781 6.425781 16.847656 6.425781 23.273437 0 6.425782-6.425782 6.425782-16.84375 0-23.273438zm0 0" fill="#4da900"/><path d="m165.9375 68.832031c-6.425781 0-11.636719 5.207031-11.636719 11.636719-.003906 3.242188 1.351563 6.34375 3.734375 8.546875 9.96875 9.210937 18.734375 19.648437 26.089844 31.058594 3.480469 5.402343 10.679688 6.960937 16.082031 3.480469 5.382813-3.464844 6.953125-10.632813 3.511719-16.035157-2.792969-4.335937-5.757812-8.546875-8.898438-12.625-.109374-.140625-.222656-.289062-.332031-.429687l-.007812-.011719c-.027344-.035156-.050781-.066406-.078125-.101563l-.003906-.003906c-.082032-.105468-.15625-.203125-.238282-.308594l-.019531-.023437c-.023437-.027344-.050781-.066406-.074219-.09375l-.015625-.023437c-.074219-.09375-.148437-.1875-.222656-.28125l-.03125-.039063-.0625-.082031-.035156-.042969-.207031-.265625-.035157-.042969-.058593-.074219-.042969-.054687-.054688-.066406c-.027343-.035157-.054687-.070313-.078125-.101563-.019531-.023437-.039062-.050781-.058594-.070312-.015624-.023438-.035156-.046875-.050781-.066406l-.050781-.0625c-.019531-.023438-.039062-.050782-.058594-.074219-.011718-.015625-.023437-.03125-.039062-.050781-.03125-.039063-.0625-.078126-.09375-.121094l-.03125-.039063c-.027344-.027343-.050782-.058593-.074219-.089843l-.039063-.046876c-.019531-.027343-.042968-.054687-.0625-.082031l-.039062-.046875c-.035156-.042968-.066406-.082031-.097656-.125l-.019532-.023437-.085937-.105469-.03125-.039062c-.027344-.03125-.054687-.066407-.082031-.097657l-.023438-.03125c-.070312-.085937-.140625-.175781-.210937-.261719l-.023438-.027343c-.027343-.035157-.054687-.070313-.085937-.105469l-.023438-.027344c-.070312-.089844-.140625-.175781-.210937-.265625l-.019531-.023437c-.03125-.039063-.0625-.078125-.09375-.113282l-.015626-.019531c-.074218-.089843-.148437-.179687-.222656-.273437l-.003906-.003906c-.035156-.042969-.070312-.089844-.105469-.132813l-.011719-.007813c-5.335937-6.507812-11.113281-12.644531-17.285156-18.363281l-.011718-.007812-.125-.117188-.003907-.003906c-2.144531-1.988281-4.964843-3.09375-7.894531-3.089844zm-119.390625-45.558593h-.230469l-.074218.003906h-.160157l-.066406.003906h-.085937l-.070313.003906h-.085937l-.066407.003906h-.011719l-.066406.003907h-.085937l-.066407.003906h-.007812l-.066406.003906h-.011719l-.066406.003907h-.011719l-.066406.003906h-.007813l-.066406.003906h-.011719l-.066406.003906h-.007812l-.066407.003906h-.011719l-.066406.003907-.007812.003906-.066406.003906-.011719-.003906-.0625.003906-.011719.003907-.066406.003906h-.007813l-.066406.003906h-.007813l-.066406.007812h-.007812l-.066406.003907-.007813.003906-.0625.003906h-.015625l-.0625.007813h-.011719l-.0625.003906-.011719.003906-.0625.003906h-.015624l-.058594.007813h-.015625l-.0625.007813h-.011719l-.0625.007812h-.011719l-.0625.007812h-.015625l-.058594.007813h-.015624l-.058594.007813h-.015625l-.058594.007812h-.015625l-.058594.007812h-.019531l-.054687.007813-.019532.003906-.058594.007813h-.015624l-.058594.007812-.015625.003906-.058594.003907-.015625.003906-.058594.007813h-.015625l-.058593.007812-.015626.003906-.058593.007813h-.015625l-.058594.011719h-.015625l-.054687.007812-.019532.003906-.054687.007813-.015625.003906-.054688.007813h-.019531l-.054687.011718h-.019532l-.050781.007813-.023437.003906-.050782.007813-.019531.003906-.050781.007812-.023438.003906-.050781.007813-.019531.003906-.046875.007813-.027344.003906-.050781.011719h-.019532l-.050781.011719-.023437.003906-.050782.007812-.070312.011719-.027344.007813-.070312.011718-.050782.007813-.023437.003906-.046875.011719-.027344.003906-.070312.011719-.050782.011719-.023437.003906-.046875.011718-.023438.003907-.050781.007812-.023437.007813-.046875.007812-.027344.003906-.046875.011719-.023438.003907-.046874.011718-.027344.003906-.042969.011719-.027344.003907-.042969.007812-.03125.007812-.039062.011719-.03125.003907-.039062.011718-.03125.003906-.042969.011719-.027344.007813-.039063.007812-.03125.007813-.039062.007812-.03125.007813-.042969.007812-.03125.007813-.039062.011719-.03125.003906-.039063.011718-.03125.007813-.039062.007813-.027344.007812-.042969.011719-.027343.007812-.042969.007813-.027344.007812-.042969.011719-.023437.007813-.046875.011718-.023438.003906-.046875.011719-.023437.007813-.046875.011718-.023438.007813-.046875.011719-.023437.003906-.050781.015625-.019532.003906-.046875.015625-.023437.003906-.046875.015626-.023438.003906-.046875.015625-.023437.003906-.046875.015625-.023438.003906-.070312.023438-.046875.011718-.019531.007813-.050782.011719-.019531.007812-.050781.015625-.019532.003907-.050781.015624-.015625.003907-.054687.019531-.015625.003906-.050782.015625-.015624.003907-.054688.015624-.011719.007813-.054687.015625-.011719.003906-.054687.015625-.015626.007813-.050781.015625-.015625.003906-.054687.019531-.011719.003906-.058594.015626-.007812.003906-.070313.023437-.054687.019531-.070313.023438-.007812.003906-.128907.042969-.007812.003906-.070312.023438-.054688.019531-.070312.023438-.007813.003906-.058594.023437h-.007812l-.0625.023438h-.003907l-.0625.023437-.003906.003906-.0625.023438h-.003906l-.0625.023438h-.003906l-.0625.023437-.003906.003906c-.242188.089844-.480469.183594-.714844.28125-5.933594 2.476563-8.734375 9.289063-6.261719 15.21875 2.46875 5.925781 9.273437 8.730469 15.203125 6.269531.144531-.046874.300781-.066406.453125-.058593h3.136719c19.449218-.027344 38.734375 3.519531 56.902344 10.464843 6 2.300782 12.726562-.699218 15.027343-6.699218 2.300781-6.003906-.703125-12.730469-6.703125-15.03125-7.359375-2.816406-14.894531-5.148438-22.558594-6.988282l-.136718-.03125h-.003906c-.367188-.089843-.730469-.175781-1.097657-.257812l-.007812-.003906-.125-.027344-.140625-.035156h-.011719l-.125-.03125h-.011719c-.277344-.066406-.546875-.128906-.824218-.1875l-.007813-.003906-.128906-.027344-.011719-.003906-.125-.027344-.015625-.003906-.125-.027344-.007813-.003906c-.046874-.007813-.082031-.015626-.128906-.027344l-.011718-.003906-.132813-.027344c-.234375-.050782-.457031-.101563-.6875-.152344l-.019531-.003906-.121094-.023438-.019531-.003906-.113281-.027344-.027344-.003906-.109375-.023438-.023438-.007812-.136719-.027344-.128906-.027344-.003906-.003906c-.234375-.046875-.457031-.09375-.691406-.144531l-.015625-.003906c-.035157-.007813-.085938-.015625-.121094-.023438l-.023437-.003906c-.035157-.007813-.074219-.015625-.109376-.023437l-.03125-.007813c-.035156-.003906-.070312-.011719-.105468-.019531l-.03125-.007813-.101563-.019531-.035156-.007812-.117187-.023438-.011719-.003906c-.046875-.007813-.089844-.019532-.136719-.027344-.140625-.027344-.277344-.058594-.417969-.085938h-.007812l-.125-.027343-.027344-.003907-.109375-.023437-.03125-.003906-.105469-.019531-.03125-.007813-.109375-.023437-.027344-.003907c-.035156-.007812-.074218-.015625-.109374-.023437l-.027344-.003906-.113282-.023438-.023437-.003906-.125-.023438-.011719-.003906c-.140625-.027344-.277344-.050781-.414062-.078125l-.007813-.003906-.128906-.023438-.027344-.003906-.109375-.023437-.027344-.003907-.109374-.019531-.03125-.007812c-.035157-.007813-.070313-.011719-.105469-.019532l-.03125-.003906-.105469-.023438-.03125-.003906-.109375-.019531-.027344-.007813-.121093-.023437h-.015626c-.140624-.027344-.273437-.050781-.414062-.078125l-.015625-.003906-.121094-.019532-.027343-.007812c-.035157-.003906-.070313-.011719-.105469-.019531l-.039063-.007813-.140625-.023437-.09375-.019531-.042969-.003907-.09375-.019531-.042968-.007812-.097656-.015626-.035157-.007812-.105469-.019531-.03125-.003907c-.140624-.027343-.273437-.050781-.414062-.074218l-.019531-.003906c-.039063-.007813-.074219-.011719-.117188-.019532l-.03125-.007812-.105469-.015625-.035156-.007813-.101562-.015625-.136719-.027343-.035156-.003907c-.039063-.007812-.066407-.011719-.101563-.019531l-.039062-.003906-.101563-.019532-.035156-.003906-.113281-.019531-.023438-.003906c-.140625-.023438-.273437-.046875-.414062-.074219h-.011719l-.125-.019531-.03125-.007813-.105469-.015625-.039062-.007812-.234375-.039063-.042969-.007812-.097656-.015625-.039063-.003907-.097656-.015624-.039063-.007813-.109374-.019531-.023438-.003906-.132812-.019532h-.003907l-.277343-.046875-.03125-.003906-.105469-.015625-.042969-.007812-.234375-.039063-.042969-.003906-.09375-.015625-.042968-.007813-.09375-.015625-.046876-.003906-.089843-.015625-.046875-.007813-.089844-.015624-.050781-.003907-.097657-.015625-.035156-.007812-.128906-.019532-.023438-.003906c-.042968-.003906-.082031-.011718-.121093-.019531l-.035157-.003906-.101562-.015625-.042969-.007813-.097656-.015625-.042969-.003906-.089844-.015625-.050781-.007813-.089843-.011718-.046876-.007813-.085937-.011719-.050781-.007812-.089844-.011719-.050781-.007812-.082031-.011719-.054688-.011719c-.03125-.003906-.058594-.007812-.089844-.011719l-.046875-.007812c-.09375-.011719-.179687-.023438-.273437-.039062l-.03125-.003907-.101563-.015625-.054687-.007812-.085938-.011719-.050781-.007813-.085937-.011718-.328126-.046875-.085937-.011719-.050781-.007812-.09375-.011719-.042969-.003907-.105469-.015624-.03125-.003907-.121094-.019531h-.019531c-.046875-.007812-.085937-.011719-.136719-.019531l-.03125-.003907-.152343-.023437-.089844-.011719-.050781-.007812-.082032-.007813-.0625-.007812-.078124-.011719-.136719-.019531-.058594-.007813-.078125-.011718-.058594-.003907-.078125-.011719-.0625-.007812-.078125-.011719-.054687-.007812-.09375-.011719-.046875-.003906-.132813-.019532-.039062-.003906-.097657-.011718-.054687-.007813-.085937-.011719-.050782-.003906-.085937-.011719-.136719-.019531-.054688-.003906-.082031-.011719-.058593-.007813-.082032-.007812-.191406-.027344c-.03125-.003906-.0625-.003906-.09375-.007812l-.042969-.007813c-.035156-.003906-.066406-.007812-.105469-.011719l-.035156-.003906-.136718-.015625-.035157-.003906-.101562-.011719-.136719-.019531-.058594-.003906-.078125-.011719-.066406-.007812-.070313-.007813-.0625-.007813-.078124-.007812-.058594-.007812-.078125-.007813-.0625-.007813-.074219-.007812-.0625-.007812-.078125-.007813-.058594-.007813-.089843-.011718-.046876-.003906-.136718-.015626-.035156-.003906-.101563-.011718-.054687-.007813-.085938-.007813-.054688-.007812-.082031-.007812-.058593-.007813-.078126-.007813-.0625-.007812-.074218-.007812-.066406-.003907-.070313-.007812-.066406-.007813-.074219-.007812-.066406-.007813-.070313-.007812-.066406-.007813-.085937-.007812-.050782-.003906c-.046875-.007813-.085937-.011719-.136718-.015626l-.03125-.003906c-.03125-.003906-.074219-.007812-.105469-.011718l-.058594-.003907-.078125-.007812-.132812-.015625-.074219-.007813-.066407-.003906-.070312-.007813-.066406-.007812-.070313-.007812-.066406-.007813-.070313-.003906-.070312-.007813-.066406-.007812-.078125-.007813-.058594-.003906-.082031-.007813-.058594-.007812-.085938-.007812-.109374-.007813-.074219-.007813-.0625-.007812-.078125-.007812-.058594-.003907-.082031-.007812-.058594-.007813-.082031-.003906-.054688-.007812-.082031-.007813-.0625-.003906-.074219-.007813-.0625-.003906-.078125-.007812-.0625-.007813-.074219-.007813-.0625-.003906-.078124-.007812-.0625-.003906-.132813-.011719-.039063-.003907-.101562-.007812-.050781-.007812-.089844-.007813-.058594-.003906-.074219-.007813-.066406-.003906-.074218-.007812-.066407-.003907-.074219-.007812-.0625-.003907-.078124-.007812-.0625-.003906-.074219-.007813-.0625-.003906-.082031-.007813-.058594-.003906c-.03125-.003906-.066406-.003906-.097656-.007812l-.039063-.003906-.140625-.011719h-.011719l-.125-.007813-.140625-.011718-.050781-.003907-.085937-.007812-.058594-.003907-.082032-.007812-.0625-.003906-.074218-.007813-.066406-.003906-.074219-.003906-.0625-.007813-.078125-.003906-.0625-.003906-.078125-.007813-.058594-.003906-.082031-.003906-.0625-.003907c-.03125-.003906-.078125-.007812-.105469-.007812l-.035156-.003906c-.050781-.003906-.085938-.007813-.132813-.007813l-.140625-.011719-.054687-.003906-.082032-.007812-.0625-.003906-.078124-.003907-.0625-.003906-.074219-.007813-.066407-.003906-.074218-.003906-.066406-.003906-.140626-.007813-.070312-.007812-.132812-.007813-.074219-.003906-.066407-.003906c-.042968-.003906-.082031-.003906-.125-.007813l-.082031-.007812-.070312-.003907-.066407-.003906-.210937-.011718-.066406-.003907-.492188-.027343-.066406-.003907-.210937-.011719-.066407-.003906c-.046875-.003906-.097656-.007812-.144531-.011718h-.0625l-.066406-.003907-.070313-.003906-.078125-.003906-.058594-.003907-.078124-.003906-.066407-.003906-.070312-.003906-.066407-.003906-.074218-.003907-.140625-.007812-.0625-.003907-.078125-.003906-.0625-.003906-.074219-.003906-.070313-.003906-.066406-.003907-.09375-.003906h-.046875l-.136719-.007813h-.046874c-.03125-.003906-.066407-.003906-.09375-.007812h-.046876l-.09375-.003906-.054687-.003906-.085937-.003907h-.058594l-.078125-.003906-.066407-.003906-.074218-.003907-.066406-.003906-.078126-.003906h-.0625l-.078124-.003906-.058594-.003906-.089844-.003907h-.050781l-.128907-.007812h-.007812c-.050781 0-.09375-.003907-.144531-.003907l-.042969-.003906-.097656-.003906h-.054688l-.082031-.003906-.066406-.003906h-.078125l-.0625-.003907-.074219-.003906h-.066406l-.078125-.003906h-.058594l-.085938-.003907-.054687-.003906h-.089844l-.050781-.003906-.089844-.003906h-.050781l-.101563-.003906h-.042968l-.136719-.003907-.046875-.003906-.09375-.003906h-.054688l-.085937-.003907h-.0625l-.078125-.003906h-.058594l-.082031-.003906h-.066406l-.074219-.003906h-.0625l-.082031-.003906h-.0625l-.078125-.003907h-.058594l-.085938-.003906h-.058593l-.097657-.003906h-.039062c-.050781 0-.097656 0-.144531-.003907h-.003907l-.140624-.003906h-.136719l-.050781-.003906h-.144532l-.085937-.003906h-.058594l-.082031-.003906h-.203125l-.082031-.003907h-.152344l-.046875-.003906c-.035157 0-.074219 0-.109375 0h-.03125c-.046875-.003906-.09375-.003906-.140625-.003906h-.144531l-.042969-.003907h-.152344l-.085937-.003906h-.28125l-.0625-.003906h-.28125l-.09375-.003906h-.1875l-.144532-.003906h-.023437c-.042969 0-.074219 0-.117188 0h-.199219l-.082031.003906h-.203125l-.082031-.003906h-.484375c-.03125 0-.070312 0-.101562 0zm0 0" fill="#9fe27c"/><path d="m19.683594 12.09375c-3.425782-.003906-6.679688 1.503906-8.890625 4.121094-5.335938 6.300781-8.859375 13.9375-10.191407 22.085937l-.011718.0625v.003907l-.007813.058593c-.023437.148438-.046875.292969-.070312.441407v.003906l-.007813.058594-.003906.007812-.007812.054688v.007812c-.015626.121094-.035157.246094-.050782.367188l-.003906.011718-.003906.050782-.003906.015624-.007813.046876v.019531l-.007813.046875-.003906.019531-.003906.046875-.003906.015625c0 .019531-.003906.035156-.007813.050781v.003906c-.011719.082032-.019531.164063-.03125.242188v.011719l-.007812.050781v.019531l-.007813.046875v.019532l-.007812.042968v.023438l-.007813.046875v.015625l-.007812.046875-.003907.019531c-.003906.058594-.011718.113281-.019531.171875v.003906l-.003906.046875-.003906.023438-.003907.042968-.003906.023438-.003906.042969-.003906.027343-.003906.039063v.023437l-.007813.042969v.027344l-.003906.042969-.003907.015625c-.007812.058593-.011718.117187-.019531.175781v.003906l-.003906.050782-.003906.015624-.003907.046876v.019531l-.003906.046875-.003906.023437-.003906.042969-.003906.023438-.003907.042968v.027344l-.003906.039062-.003906.03125-.003907.039063-.003906.03125-.003906.070313-.003906.027343-.003906.042969v.027344l-.003907.039062-.003906.027344-.003906.039062v.03125l-.003907.035157-.003906.03125-.003906.039062v.03125l-.003906.035157-.003906.03125-.003907.039062v.03125l-.007812.097656v.003906l-.003907.042969-.003906.023438v.039062l-.003906.03125-.003906.035157v.035156l-.003906.035156v.035156l-.003907.03125-.003906.039063v.03125l-.003906.039062-.003907.03125v.039063l-.0039058.042968-.0039062.050782v.03125l-.0039062.039062-.0039063.03125v.035156l-.0039063.035157v.035156l-.0039062.035156v.035157l-.0039062.03125v.039062l-.0039063.03125v.039062l-.0039063.03125v.039063l-.0039062.03125v.066406l-.0039062.027344v.042969l-.0039063.027344v.042968l-.0039063.027344v.066406l-.0039062.042969v.03125l-.0039062.042969v.023437l-.0039063.046875v.09375c-.0039063.023438-.0039063.046875-.0039063.070313v.019531l-.0039062.050781v.066407l-.0039062.03125v.070312l-.0039063.039062v.070313l-.0039063.03125v.117187l-.0039062.023438v.136719l-.0039062.027343v.144532l-.0039063.039062v.171875l-.00390625.046875v.183594l-.00390625.046875v4.425781c.00390625 113.941406 92.371094 206.308594 206.3125 206.308594h4.355469l.039062-.003906h.238281l.027344-.003906h.144532l.035156-.003907h.140625l.035156-.003906h.109375l.0625-.003906h.070312l.03125-.003907h.136719l.039063-.003906h.101562l.039063-.003906h.023437c.050782 0 .101563-.003906.15625-.003906l.019532-.003906h.066406l.046875-.003907h.023437l.042969-.003906h.070313l.019531-.003906h.0625c.101562-.007813.207031-.011719.308593-.015625h.003907l.058593-.003906h.011719l.054688-.003907h.007812l.0625-.003906c1.851563-.105469 3.699219-.328125 5.523438-.65625 6.328125-1.136719 10.535156-7.183594 9.398437-13.511719-1.136718-6.324218-7.1875-10.53125-13.511718-9.394531-.007813 0-.019532.003906-.03125.003906-1.335938.242188-2.691407.363281-4.050782.363281h-3.972656c-100.925781 0-183.035156-82.113281-183.035156-183.039062v-3.972656c-.027344-5.300782 1.851562-10.4375 5.289062-14.472656 4.148438-4.910157 3.535156-12.25-1.375-16.398438-2.097656-1.773438-4.757812-2.75-7.507812-2.75zm0 0" fill="#4da900"/><path d="m274.453125 251.179688-223.085937-223.085938c-6.425782-6.425781-16.84375-6.425781-23.273438 0-6.425781 6.425781-6.425781 16.847656 0 23.273438l18.453125 18.453124 204.636719 204.632813c6.425781 6.425781 16.84375 6.425781 23.269531 0 6.140625-6.375 5.914063-16.679687 0-23.273437zm0 0" fill="#8ccd5b"/><path d="m81.457031 23.273438c6.425781 0 11.636719 5.210937 11.636719 11.636718v46.546875c0 6.425781-5.210938 11.632813-11.636719 11.632813s-11.636719-5.207032-11.636719-11.632813v-46.546875c0-6.425781 5.210938-11.636718 11.636719-11.636718zm0 0" fill="#8ccd5b"/><path d="m197.820312 116.363281c6.425782 0 11.636719 5.210938 11.636719 11.636719v69.820312c0 6.425782-5.210937 11.632813-11.636719 11.632813-6.425781 0-11.636718-5.207031-11.636718-11.632813v-69.820312c0-6.425781 5.210937-11.636719 11.636718-11.636719zm0 0" fill="#8ccd5b"/><path d="m128.003906 46.546875c6.425782 0 11.632813 5.210937 11.632813 11.636719v69.816406c0 6.425781-5.207031 11.636719-11.632813 11.636719-6.429687 0-11.636718-5.210938-11.636718-11.636719v-69.816406c0-6.425782 5.207031-11.636719 11.636718-11.636719zm0 0" fill="#8ccd5b"/><path d="m34.910156 93.09375h69.820313c6.425781 0 11.636719 5.207031 11.636719 11.632812 0 6.429688-5.210938 11.636719-11.636719 11.636719h-69.820313c-6.425781 0-11.632812-5.207031-11.632812-11.636719 0-6.425781 5.207031-11.632812 11.632812-11.632812zm0 0" fill="#8ccd5b"/><path d="m81.457031 139.636719h69.816407c6.429687 0 11.636718 5.210937 11.636718 11.636719 0 6.425781-5.210937 11.636718-11.636718 11.636718h-69.816407c-6.425781 0-11.636719-5.210937-11.636719-11.636718 0-6.425782 5.210938-11.636719 11.636719-11.636719zm0 0" fill="#8ccd5b"/><path d="m116.367188 512h279.269531c25.707031 0 46.546875-20.839844 46.546875-46.546875v-1.359375c.050781-14.8125-6.984375-28.757812-18.933594-37.515625-99.78125-72.285156-234.714844-72.285156-334.496094 0-11.949218 8.757813-18.984375 22.703125-18.933594 37.515625v1.359375c0 25.707031 20.839844 46.546875 46.546876 46.546875zm0 0" fill="#4d2100"/><path d="m256 372.363281h-.246094c-.066406 0-.136718 0-.203125 0h-.039062c-.070313 0-.132813 0-.203125 0h-.039063c-.070312 0-.132812 0-.207031 0h-.023438l-.210937.003907h-.492187c-.070313 0-.140626 0-.210938.003906h-.03125c-.074219 0-.140625 0-.214844 0h-.003906c-.074219 0-.144531 0-.21875 0h-.019531l-.210938.003906h-.03125l-.203125.003906h-.273437c-.070313.003906-.140625.003906-.214844.003906h-.003906c-.070313 0-.140625 0-.214844 0l-.027344.003907h-.242187c-.070313.003906-.132813.003906-.199219.003906h-.039063c-.070312 0-.132812.003906-.207031.003906h-.019531l-.214844.003907h-.007812c-.074219 0-.140625 0-.214844.003906h-.027344c-.070312 0-.140625 0-.207031.003906h-.03125l-.207031.003906h-.027344c-.074219 0-.140625.003906-.214844.003906h-.011718l-.210938.003907h-.019531c-.074219.003906-.136719.003906-.210938.003906h-.03125l-.203125.003906-.035156.003907c-.074219 0-.136719 0-.207031.003906h-.019531c-.074219 0-.148438.003906-.21875.003906h-.007813l-.214844.007812h-.019531l-.203125.003907h-.039063c-.066406.003906-.132812.003906-.199218.003906l-.035156.003906-.203126.003907h-.035156l-.195312.007812h-.015625c-.074219 0-.140625.003906-.210938.003906l-.027343.003906c-.070313 0-.140626.003907-.207032.003907h-.027344c-.070312.003906-.144531.003906-.214843.007812h-.019531c-.070313 0-.144532.003907-.21875.007813h-.003907c-.074219 0-.148437.003906-.226562.003906l-.003907.003906c-.070312 0-.140624.003906-.214843.003906h-.023438l-.203125.007813h-.039062c-.066406.003906-.132813.003906-.199219.007813h-.027344c-.074219.003906-.140625.003906-.210937.007812h-.011719c-.070313.003906-.144531.003906-.210937.007812h-.019532l-.207031.007813-.03125.003906c-.066406 0-.136719.003907-.207031.003907l-.023438.003906c-.074218 0-.136718.003906-.210937.007812h-.019531c-.144532.003906-.285157.011719-.429688.015625h-.027344c-.066406.003907-.136718.007813-.207031.007813l-.027344.003906c-.066406 0-.136719.003906-.203125.007812h-.03125l-.207031.007813h-.015625l-.214844.011719h-.007812c-.070313 0-.140625.003906-.214844.007812h-.019531l-.210938.011719h-.023437l-.207032.007813-.027343.003906-.210938.007812h-.011719c-.066406.003906-.140624.007813-.207031.011719h-.015625c-.074218.003906-.136718.003906-.210937.007813l-.027344.003906-.203125.007812h-.03125l-.199219.011719h-.03125c-.070312.003906-.136719.007813-.207031.011719h-.003906l-.207032.011718h-.027343c-.070313.003907-.136719.007813-.203125.011719h-.03125l-.199219.011719h-.039063l-.203124.011719h-.007813l-.21875.011719h-.003906c-.070313.003906-.148438.007812-.21875.011718h-.015625l-.203125.011719h-.035157c-.066406.003906-.136718.007813-.203124.011719l-.019532.003906c-.070312.003906-.144531.007812-.214844.011719h-.003906c-.144531.007812-.292968.015625-.441406.023437h-.015625l-.214844.015625h-.015625l-.214844.011719h-.007812c-.152344.011719-.292969.019531-.445312.027344h-.007813l-.214844.015625h-.015625c-.066406.003906-.144531.007812-.210937.011719l-.019531.003906c-.070313.003906-.140626.007812-.210938.011718h-.011719c-.074219.003907-.144531.007813-.21875.015626-.070312.003906-.148437.007812-.21875.011718l-.011719.003906-.210937.011719-.023437.003907c-.066407.003906-.140626.007812-.207032.011718h-.019531l-.210937.015625h-.007813c-.144531.011719-.285156.019531-.433594.03125h-.019531l-.210938.015625h-.015624l-.207032.015625h-.023437l-.433594.03125h-.003906c-.070313.003907-.144531.011719-.214844.015625h-.015625l-.207031.019532h-.019531c-.070313.003906-.140626.011718-.210938.015624h-.011719c-.140625.011719-.289062.023438-.429687.03125l-.015625.003907-.203125.015625h-.03125l-.203125.015625-.015625.003906c-.21875.015625-.4375.03125-.65625.050781h-.011719l-.210937.019532h-.011719l-.214844.015624h-.007813c-.148437.015626-.289062.027344-.4375.039063h-.003906c-.078125.003906-.144531.011719-.21875.015625l-.007812.003906c-.074219.003906-.140625.011719-.214844.015625l-.011719.003907c-.222656.015624-.433593.035156-.65625.054687h-.007812l-.210938.019531h-.015625c-.074218.007813-.136718.011719-.207031.019532h-.015625c-.21875.019531-.4375.039062-.65625.0625h-.003906l-.214844.019531h-.007812l-.214844.019531h-.003906c-.222657.019531-.441407.042969-.660157.0625h-.003906l-.214844.019531-.011719.003907c-.289062.027343-.582031.054687-.871093.082031l-.007813.003906c-.292968.027344-.578125.058594-.871094.085937h-.007812l-.210938.023438h-.011718c-28.890625 2.988281-57.152344 10.386719-83.796875 21.945312-17.679688 7.6875-25.78125 28.253907-18.09375 45.933594 7.683593 17.664063 28.21875 25.765625 45.890625 18.109375 26.964844-11.699219 56.050781-17.714843 85.445312-17.679687 19.28125 0 34.910156-15.628906 34.910156-34.90625 0-19.28125-15.632812-34.914063-34.914062-34.914063zm0 0" fill="#69341c"/></svg>