<svg height="512" viewBox="0 0 64 64" width="512" xmlns="http://www.w3.org/2000/svg"><g id="Flat"><g id="Stroke_copy_2" data-name="Stroke copy 2"><g><g><circle cx="32" cy="41" fill="#57b7eb" r="20"/><path d="m39 53a19.965 19.965 0 0 1 -17.986-28.7 19.992 19.992 0 1 0 28.972 25.4 19.9 19.9 0 0 1 -10.986 3.3z" fill="#4891d3"/><path d="m27.949 60.589a20.1 20.1 0 0 0 4.051.411c.675 0 1.342-.036 2-.1v-5.9l-4 2z" fill="#a1d51c"/><path d="m42.263 23.857a19.941 19.941 0 0 0 -29.055 10.351l3.792 3.792-1 3v4h-3.588a20.027 20.027 0 0 0 11.212 14.144l5.376-6.144-7-3 9-5-7-3-3-6 3-4 8 4 3-4 8-2z" fill="#c4f236"/><path d="m52 41a19.891 19.891 0 0 0 -2.175-9.037l-11.825 11.037 4 4-5.005 13.346a19.99 19.99 0 0 0 15.005-19.346z" fill="#c4f236"/><path d="m29 53-5.38 6.14a20.046 20.046 0 0 1 -11.21-14.14h3.59v-4l1-3-3.79-3.79a20.06 20.06 0 0 1 7.76-9.88 20.013 20.013 0 0 0 4.74 23.61l-3.71 2.06z" fill="#a1d51c"/><path d="m50 49.69a20.02 20.02 0 0 1 -13 10.66l2.76-7.37a19.746 19.746 0 0 0 10.24-3.29z" fill="#a1d51c"/><g fill="#c4f236"><path d="m32 51a1 1 0 0 1 -.556-1.832l1.336-.891a2.731 2.731 0 0 0 1.22-2.277 1 1 0 0 1 2 0 4.727 4.727 0 0 1 -2.109 3.941l-1.336.891a1 1 0 0 1 -.555.168z"/><path d="m32.3 41.211a5.121 5.121 0 0 1 -1.618-.262 1 1 0 0 1 .632-1.9 3.145 3.145 0 0 0 3.606-1.237l.246-.369a1 1 0 1 1 1.664 1.11l-.247.369a5.151 5.151 0 0 1 -4.283 2.289z"/></g></g><g><path d="m61 20a3.989 3.989 0 0 0 -2.93-3.837 2.994 2.994 0 0 0 -2.07-5.163c-.047 0-.091.012-.137.014a3.968 3.968 0 0 0 -.507-1.178 2.966 2.966 0 0 0 .644-1.836 2.986 2.986 0 0 0 -4.8-2.383 3.982 3.982 0 0 0 -3.2-1.617 4.057 4.057 0 0 0 -.719.072 2.963 2.963 0 0 0 -4.3-.277 11.422 11.422 0 0 0 -4.181-.795h-3.358a5.272 5.272 0 0 0 -.878.073l-1.932.327a5.335 5.335 0 0 0 -4.184 6.949l.552 1.651h2l1.46-2.92a1.954 1.954 0 0 1 1.748-1.08h.982a1.954 1.954 0 0 1 1.382.572l1.574 1.574a1.955 1.955 0 0 0 2 .472 1.949 1.949 0 0 1 2.214.741 3.962 3.962 0 0 0 4.655 5.495c0 .049-.015.1-.015.146a2.991 2.991 0 0 0 2.578 2.957 3.959 3.959 0 0 0 4.55 5.862 2.991 2.991 0 1 0 5.255-2.619 3.984 3.984 0 0 0 1.617-3.2z" fill="#93999a"/><path d="m57.128 22.819a3.562 3.562 0 0 1 -3.785-1.039 3.862 3.862 0 0 1 -1.343-2.83 3.973 3.973 0 0 1 .578-1.993 2.991 2.991 0 0 1 -2.578-2.957c0-.05.012-.1.015-.146-1.086.286-2.283.288-3.846-1.277a3.71 3.71 0 0 1 -1.169-2.756 3.982 3.982 0 0 1 .356-1.462 1.947 1.947 0 0 0 -2.254-.727 1.9 1.9 0 0 1 -1.96-.486 3.374 3.374 0 0 1 -.742-3.639l.145-.361a11.393 11.393 0 0 0 -1.745-.146h-3.358a5.272 5.272 0 0 0 -.878.073l-1.932.327a5.335 5.335 0 0 0 -4.184 6.949l.552 1.651h2l1.46-2.92a1.954 1.954 0 0 1 1.748-1.08h.982a1.954 1.954 0 0 1 1.382.572l1.574 1.574a1.955 1.955 0 0 0 2 .472 1.949 1.949 0 0 1 2.214.741 3.962 3.962 0 0 0 4.655 5.495c0 .049-.015.1-.015.146a2.991 2.991 0 0 0 2.578 2.957 3.959 3.959 0 0 0 4.55 5.862 2.992 2.992 0 0 0 5.872-.819 2.987 2.987 0 0 1 -2.872-2.181z" fill="#656b76"/><path d="m21.728 3.692a3.135 3.135 0 0 0 -2.5.488l-.45.3a1.309 1.309 0 0 1 -1.488.048l-1.09-.728a1.3 1.3 0 0 0 -1.868.525 1.278 1.278 0 0 1 -1.121.675h-.445a6.5 6.5 0 0 1 -2.887-.794 1.964 1.964 0 0 0 -.879-.206 2 2 0 0 0 -2 2 2 2 0 0 0 -1.677 3.084 2.989 2.989 0 0 0 -.923 5.446 2.9 2.9 0 0 0 0 2.94 2.984 2.984 0 0 0 .82 5.414 2.963 2.963 0 0 0 .747 3.31 2.98 2.98 0 0 0 -.407 5.423 2 2 0 1 0 2.88 0 2.989 2.989 0 0 0 1.56-2.617 2.822 2.822 0 0 0 -.03-.293 1.967 1.967 0 0 0 1.532.228 2 2 0 0 0 1.155-3.055 1.985 1.985 0 0 0 1.02-2.964 2.988 2.988 0 0 0 .1-5.8 2.984 2.984 0 0 0 .223-1.116 3 3 0 0 0 1.116-5.78.852.852 0 0 1 .118-.571l.941-1.411a.863.863 0 0 1 1.486.084.815.815 0 0 0 .972.467l.771-.257a.879.879 0 0 1 1.215.993l-.619 2.475h3l.662-2.647a11.36 11.36 0 0 0 .338-2.747 3.008 3.008 0 0 0 -2.272-2.914z" fill="#93999a"/><path d="m38 27h-18v-8h14l4 4z" fill="#f9e109"/><path d="m20 11h4v8h-4z" fill="#57b7eb"/><path d="m28 11h4v8h-4z" fill="#57b7eb"/><g fill="#93999a"><path d="m20 50a1.985 1.985 0 0 0 -1.5.69 1.985 1.985 0 0 0 -1.5-.69c-.061 0-.119.013-.178.018a2.99 2.99 0 0 0 -2.822-2.018 3 3 0 0 0 -6 0 3 3 0 1 0 1.154 5.768 2 2 0 0 0 3.692 0 2.994 2.994 0 0 0 2.83-.28 1.972 1.972 0 0 0 2.824-.178 2 2 0 1 0 1.5-3.31z"/><circle cx="5" cy="41" r="2"/><path d="m55 35a1.905 1.905 0 0 0 -.263.027 1.992 1.992 0 0 0 -1.737-1.027c-.061 0-.119.013-.178.018a2.987 2.987 0 0 0 -5.738.3 1.985 1.985 0 0 0 -2.964 1.02 2 2 0 1 0 -1.12 3.662 1.963 1.963 0 0 0 .255-.041 1.983 1.983 0 0 0 3.489 0 1.817 1.817 0 0 0 .256.041 1.677 1.677 0 0 0 .175-.027 2.975 2.975 0 0 0 5.15.9 1.959 1.959 0 0 0 2.417-.911 1.821 1.821 0 0 0 .258.038 2 2 0 0 0 0-4z"/><path d="m59 49a1.987 1.987 0 0 0 -1 .277 1.92 1.92 0 0 0 -1.675-.152 2.915 2.915 0 0 0 -3.025-1.033 2.98 2.98 0 0 0 -4.77.213 3.968 3.968 0 0 0 -5 1.748 3.035 3.035 0 0 0 -.53-.053 2.978 2.978 0 0 0 -2 .779 2.988 2.988 0 0 0 -5 2.221 2 2 0 1 0 1.846 2.768 2.967 2.967 0 0 0 3.154-.547 2.978 2.978 0 0 0 2 .779 2 2 0 0 0 3.635 1.147 3.994 3.994 0 0 0 7.365-2.147 4.057 4.057 0 0 0 -.072-.719 3.117 3.117 0 0 0 .314-.3h.021a1.993 1.993 0 0 0 3.737-.981 1.762 1.762 0 0 0 -.027-.263l.03-.016a1.968 1.968 0 0 0 .997.279 2 2 0 0 0 0-4z"/></g><path d="m56.31 35.5a1.983 1.983 0 0 1 -1.31.5 1.821 1.821 0 0 1 -.258-.036 1.959 1.959 0 0 1 -2.417.911 2.975 2.975 0 0 1 -5.15-.9 1.677 1.677 0 0 1 -.175.025 1.817 1.817 0 0 1 -.256-.039 1.983 1.983 0 0 1 -3.489 0 1.963 1.963 0 0 1 -.255.039 1.983 1.983 0 0 1 -1.31-.5 1.992 1.992 0 0 0 1.31 3.5 1.963 1.963 0 0 0 .255-.041 1.983 1.983 0 0 0 3.489 0 1.817 1.817 0 0 0 .256.041 1.677 1.677 0 0 0 .175-.027 2.975 2.975 0 0 0 5.15.9 1.959 1.959 0 0 0 2.417-.911 1.821 1.821 0 0 0 .258.038 1.992 1.992 0 0 0 1.31-3.5z" fill="#656b76"/><path d="m51 56a3.986 3.986 0 0 1 -3.365-1.853 2 2 0 0 1 -3.635-1.147 2.978 2.978 0 0 1 -2-.779 2.967 2.967 0 0 1 -3.154.547 2 2 0 0 1 -3.5.352 2 2 0 1 0 2.5 2.648 2.967 2.967 0 0 0 3.154-.547 2.978 2.978 0 0 0 2 .779 2 2 0 0 0 3.635 1.147 3.994 3.994 0 0 0 7.365-2.147c0-.116-.023-.225-.034-.338a3.976 3.976 0 0 1 -2.966 1.338z" fill="#656b76"/><path d="m60.485 49.927a3.946 3.946 0 0 1 -5.544 1.486 3.791 3.791 0 0 1 .059.587 3.97 3.97 0 0 1 -.623 2.126 1.971 1.971 0 0 0 1.623.874 2 2 0 0 0 2-2 1.762 1.762 0 0 0 -.027-.263l.03-.016a1.968 1.968 0 0 0 .997.279 2 2 0 0 0 1.657-3.12c-.057.02-.115.032-.172.047z" fill="#93999a"/><path d="m20 52a1.985 1.985 0 0 1 -1.5-.69 1.972 1.972 0 0 1 -2.824.178 2.994 2.994 0 0 1 -2.83.28 2 2 0 0 1 -3.692 0 2.983 2.983 0 0 1 -3.97-1.768 2.962 2.962 0 0 0 -.184 1 3 3 0 0 0 4.154 2.768 2 2 0 0 0 3.692 0 2.994 2.994 0 0 0 2.83-.28 1.972 1.972 0 0 0 2.824-.178 1.99 1.99 0 0 0 3.223-2.31 1.994 1.994 0 0 1 -1.723 1z" fill="#656b76"/><path d="m6 42a1.992 1.992 0 0 1 -1.82-2.82 2 2 0 1 0 2.64 2.64 1.99 1.99 0 0 1 -.82.18z" fill="#656b76"/><path d="m9.25 30.961a1.85 1.85 0 0 1 -.186-.451 2 2 0 0 1 .5-1.893 2.98 2.98 0 0 1 .407-5.423 2.963 2.963 0 0 1 -.747-3.31 2.984 2.984 0 0 1 -.824-5.414 2.9 2.9 0 0 1 0-2.94 2.989 2.989 0 0 1 .923-5.446 1.956 1.956 0 0 1 -.062-2.053 1.879 1.879 0 0 0 -.261-.031 2 2 0 0 0 -2 2 2 2 0 0 0 -1.677 3.084 2.989 2.989 0 0 0 -.923 5.446 2.9 2.9 0 0 0 0 2.94 2.984 2.984 0 0 0 .82 5.414 2.963 2.963 0 0 0 .747 3.31 2.98 2.98 0 0 0 -.407 5.423 2 2 0 1 0 2.88 0 3.061 3.061 0 0 0 .81-.656z" fill="#656b76"/><path d="m30 15v-4h-2v8h4v-2a2 2 0 0 1 -2-2z" fill="#4891d3"/><path d="m22 15v-4h-2v8h4v-2a2 2 0 0 1 -2-2z" fill="#4891d3"/><path d="m28.184 24a6.185 6.185 0 0 1 -6.068-5h-2.116v8h18v-3z" fill="#fcbc04"/><path d="m26 24h-2a1 1 0 0 1 0-2h2a1 1 0 0 1 0 2z" fill="#57b7eb"/><path d="m32 24h-2a1 1 0 0 1 0-2h2a1 1 0 0 1 0 2z" fill="#57b7eb"/><path d="m28 14h4v2h-4z" fill="#f9e109"/><path d="m20 14h4v2h-4z" fill="#f9e109"/><path d="m30 14h-2v2h2.277a1.987 1.987 0 0 1 -.277-1z" fill="#fcbc04"/><path d="m22 14h-2v2h2.277a1.987 1.987 0 0 1 -.277-1z" fill="#fcbc04"/><path d="m24 24h2a.979.979 0 0 0 .609-.227 6.14 6.14 0 0 1 -2.9-1.715.988.988 0 0 0 -.709.942 1 1 0 0 0 1 1z" fill="#4891d3"/></g></g></g></g></svg>